<svg width="85" height="46" viewBox="0 0 85 46" fill="none" xmlns="http://www.w3.org/2000/svg">
<path d="M13.4421 17.8609C10.8973 17.1396 6.83701 16.1832 2.38767 17.3746C1.56102 17.5934 1.00181 17.9581 0.604692 18.647C0.410185 18.9955 0.231888 19.3683 0.329141 19.7492C0.410185 20.0734 0.880243 20.1868 1.24494 20.2436C1.60154 20.3003 2.41198 20.3408 2.6308 20.0815C2.74427 19.9437 2.74427 19.5628 2.15264 19.4412C1.93382 19.3926 1.33409 19.3764 1.29357 19.271C1.29357 19.271 1.31788 19.1981 1.64206 19.1008C1.78794 19.0522 2.84962 18.6227 5.74291 18.7118C9.1873 18.8253 12.1941 19.6276 15.3791 20.8757C18.4912 22.0995 21.9923 24.312 24.0428 26.954C24.8208 27.9509 25.7852 29.588 25.9068 30.9738C26.2147 34.3291 22.9405 37.1494 16.2868 36.9225C15.1522 36.882 13.7663 36.6145 13.7663 36.6145L13.6285 30.1472C13.6285 30.1472 16.4408 30.1229 19.561 31.1521C19.8284 31.2413 20.0959 31.4115 20.1202 31.6708C20.1364 31.8653 19.9824 32.0355 19.8041 32.1895C19.4799 32.4732 19.0342 32.5947 18.937 32.7163C18.864 32.8055 18.864 32.9351 18.9613 33.0081C19.1963 33.1864 19.7717 33.3079 20.1607 33.2755C20.9469 33.2026 21.4655 32.7568 21.8627 32.1571C22.2841 31.525 22.5191 29.9122 20.2823 28.891C17.389 27.5619 13.6123 27.8131 13.6123 27.8131C13.6123 27.8131 13.5961 26.9378 13.5556 26.3543C13.4908 25.398 13.2233 23.5097 12.348 22.9748C12.1859 22.8775 11.9914 22.8613 11.878 23.0153C11.7078 23.2341 11.5376 24.077 11.5052 24.2958C11.1729 26.2571 11.1972 28.0076 11.1729 28.0319C11.1648 28.04 11.1567 28.0562 11.1405 28.0644C11.1081 28.0887 9.01711 28.3318 6.9991 29.2071C6.19676 29.5556 5.04593 30.1796 4.69744 30.9901C4.24359 32.0355 5.03783 33.1783 6.37506 34.4426C7.50968 35.5123 9.1792 36.6389 10.4111 37.2224C10.7271 37.3683 11.1 37.5547 11.1 37.5547C11.1 37.5547 11.181 38.3003 11.2458 38.7379C11.4809 40.294 12.6641 40.067 12.9964 40.0022C13.5313 39.8968 13.6285 39.5402 13.7015 39.1269C13.742 38.9 13.7258 38.5758 13.7258 38.5758C13.7258 38.5758 14.5281 38.7622 15.0711 38.8595C16.6434 39.1512 18.3534 39.1999 19.8284 38.9972C25.7447 38.1868 27.2359 35.407 27.7141 34.6614C28.5326 33.3647 30.2751 29.7663 25.0396 24.4174C23.8401 23.1855 20.3876 19.8221 13.4421 17.8609ZM5.62945 32.4408C5.41063 32.2219 5.24854 31.9788 5.29717 31.687C5.34579 31.4034 5.8969 31.1602 6.17245 31.0792C8.83881 30.2931 11.1081 30.2526 11.1081 30.2526C11.1081 30.2526 11.0837 31.2089 11.0837 32.1733C11.0756 34.0049 11.1243 35.8689 11.1243 35.8689C11.1243 35.8689 8.10941 34.9937 5.62945 32.4408Z" fill="#316777"/>
<path d="M32.747 25.7062C33.9951 25.2199 34.9677 24.5148 35.9402 23.5099C36.5156 22.9264 37.01 21.9782 36.8317 21.1029C36.7425 20.6733 36.5399 20.3735 36.1833 20.0574C36.005 19.9034 35.5917 19.6846 35.2594 19.6198C35.1622 19.6036 35.0568 19.5954 35.0163 19.563C34.9677 19.5306 34.9271 19.4739 34.8866 19.409C34.6678 19.1335 34.2302 18.866 33.9222 18.7607C32.9659 18.4284 31.6773 18.6796 30.8101 19.0443C29.8862 19.4334 29.0352 20.0088 28.3869 20.7058C26.6849 22.5293 27.4305 23.9718 27.5845 24.2393C27.7142 24.4662 27.9492 24.7094 28.0059 24.9525C28.0384 25.0903 28.0059 25.2767 28.014 25.4469C28.0222 25.8278 28.1923 26.2249 28.4841 26.4761C28.6867 26.6544 28.9866 26.7112 29.2864 26.2573C29.3837 26.1033 29.5539 25.7954 29.5539 25.7954C29.5539 25.7954 29.9024 25.998 30.7371 26.0547C31.345 26.1033 32.1959 25.9169 32.747 25.7062ZM28.7353 23.5018C28.7353 23.5018 28.6786 23.3802 28.6381 23.2911C28.3788 22.6508 28.9461 21.9295 29.4647 21.4919C30.4778 20.6328 31.3369 20.649 31.3369 20.649C31.3369 20.649 31.1343 20.8111 30.9641 20.9651C29.4891 22.2537 28.7353 23.5018 28.7353 23.5018ZM30.9479 23.4775C31.5638 22.6832 32.7065 21.6945 33.5089 21.2163C34.1329 20.8435 34.6759 20.7382 35.073 20.9165C35.3162 21.0218 35.5026 21.2407 35.535 21.5243C35.6403 22.4239 34.603 23.1695 33.9141 23.5747C32.3418 24.4905 30.4778 24.2879 30.4292 24.1988C30.4211 24.1907 30.8101 23.6639 30.9479 23.4775Z" fill="#316777"/>
<path d="M68.4714 28.3561C66.4615 26.9622 63.2278 31.371 61.8014 33.5592C61.5907 32.4489 62.3444 31.0306 62.3444 31.0306C62.3444 31.0306 63.552 28.9397 63.7222 28.5182C63.8843 28.0887 63.9815 27.2134 63.7789 27.1243C63.5925 27.0351 63.2683 27.3188 63.2683 27.3188C60.5533 29.7501 60.1724 32.4489 60.1724 32.4489C59.9131 33.8996 60.2129 34.9207 60.6587 35.6339C59.1513 38.8433 58.4138 41.6474 58.6083 43.3007C58.7947 44.565 59.6943 45.4727 60.2454 45.6672C60.7965 45.8942 60.9018 45.2296 60.9018 45.2296C61.3476 41.8014 62.1337 39.516 63.0657 37.2548C65.8942 37.9032 68.0256 35.1558 68.7793 33.8348C69.2251 33.0486 69.4601 31.995 69.4601 30.9982C69.4601 29.8879 69.144 28.8343 68.4714 28.3561ZM66.6317 33.8185C66.3075 34.1265 65.2296 34.7343 64.1193 34.8559C65.181 32.7974 66.502 31.2819 67.2314 30.4795C68.0824 29.5232 68.1958 30.3904 68.1958 30.3904C68.3903 32.0761 67.1585 33.3485 66.6317 33.8185Z" fill="#316777"/>
<path d="M59.1757 35.4482C59.3135 34.9377 58.8434 34.3703 58.422 34.265C58.0249 34.1839 54.9938 34.7512 54.6291 34.8485C54.2401 34.9539 54.4103 34.5892 54.4103 34.5892L54.8804 33.0007C54.8804 33.0007 57.7818 32.8872 58.2032 32.8224C58.5922 32.7494 58.6165 32.4739 58.6165 32.4739C58.6165 32.4739 58.6651 32.02 58.6489 31.5986C58.6084 31.1448 58.2437 31.1853 58.2437 31.1853C57.1253 31.0718 55.5854 31.2015 55.5854 31.2015L55.9745 29.9858C55.9745 29.9858 59.0542 29.84 60.2293 29.5644C60.829 29.4185 60.4805 28.835 60.4805 28.835C59.7511 27.3762 58.9083 27.4572 58.9083 27.4572C56.485 27.3762 52.9596 28.0165 52.5787 28.211C52.2221 28.373 52.2545 28.6405 52.7246 29.2321C53.2271 29.8562 54.078 29.7994 54.078 29.7994L53.3324 31.3312C52.7246 31.3717 52.5139 31.5662 52.5139 31.5662C52.1654 31.939 52.6435 33.0412 52.6435 33.0412C52.6435 33.0412 51.59 35.3996 52.3518 36.6477C53.1703 37.9525 54.1429 37.8958 54.1429 37.8958C55.9826 38.0092 59.0136 36.0804 59.1757 35.4482Z" fill="#316777"/>
<path d="M48.583 26.078C48.583 26.078 48.1535 25.8754 48.0481 26.3049C47.9428 26.7264 48.1049 27.1802 48.1049 27.1802C49.1747 30.8029 49.4178 32.9425 49.4178 32.9425C49.4178 32.9425 49.4664 33.5746 49.3449 33.607C49.2557 33.6719 49.1666 33.5827 49.1666 33.5827C49.045 33.5908 47.8699 31.6215 47.8699 31.6215L47.6429 31.2406C46.3543 29.1658 45.5682 28.4526 45.5682 28.4526C45.3818 28.2824 44.9198 27.8124 44.3282 28.4607C43.7447 29.1091 43.2827 31.2081 43.1044 33.1775C42.9504 35.1469 43.0639 36.2653 43.3557 36.7354C43.6717 37.2135 44.2796 37.3756 44.7821 36.9704C45.3169 36.5652 45.2116 33.9718 45.3007 32.6426C45.3818 31.3054 45.5115 31.5485 45.5115 31.5485C45.6249 31.5161 46.2409 32.7399 46.2409 32.7399C46.2409 32.7399 47.8455 36.0141 48.8505 36.5003C49.8716 36.9866 50.6902 36.2086 50.9982 35.4792C51.3142 34.7417 51.8491 32.3103 51.0549 29.6197C50.2364 26.9047 48.583 26.078 48.583 26.078Z" fill="#316777"/>
<path d="M31.928 33.0076C31.8874 32.108 31.7821 29.8225 31.5308 28.7852C31.4255 28.3394 31.2391 27.9342 30.8014 27.764C30.7528 27.7478 30.6961 27.7316 30.6556 27.7235C30.38 27.6667 30.226 28.0477 30.1531 28.2341C29.9343 28.7933 29.7803 30.1143 29.7398 30.5276C29.6101 31.7838 29.5047 34.75 29.7235 36.2656C29.8127 36.8977 30.0234 37.311 30.6637 37.4488C30.923 37.5055 31.4012 37.4893 31.6038 37.3597C31.7821 37.2462 31.9117 37.0274 31.9523 36.8329C32.0738 36.3061 32.0252 35.5605 32.0009 34.9932C31.9766 34.3448 31.9604 33.6802 31.928 33.0076Z" fill="#316777"/>
<path d="M42.294 28.0075C40.9082 27.27 38.6308 27.27 37.2125 27.4483C35.7537 27.6266 33.8006 28.0804 32.9739 29.2799C32.6578 29.7337 32.4714 30.4388 32.6173 31.0061C32.6984 31.3222 32.9253 31.5653 33.2576 31.7355C33.8492 32.0435 35.8186 32.1083 36.6939 32.2056C37.5205 32.2947 39.0441 32.4406 39.887 32.7891C39.887 32.7891 40.6812 33.0646 40.6731 33.5185C40.6731 33.7454 40.5029 33.9237 40.3328 34.0453C39.0847 34.9287 37.3746 35.1799 35.851 35.1556C35.3323 35.1475 34.9109 35.0664 34.3841 34.8395C34.1572 34.7423 33.8735 34.564 33.914 34.256C33.9789 33.7697 34.5381 33.6482 34.9757 33.6887C35.227 33.713 35.543 33.8184 35.7862 33.9075C36.7668 34.2965 37.2125 34.6207 38.0716 34.4829C38.3958 34.4343 39.5061 34.1912 39.652 33.7373C39.6925 33.6239 39.6358 33.5023 39.5547 33.4212C39.4413 33.2997 38.7686 33.0403 38.5903 32.9755C37.9338 32.7405 36.6939 32.5298 36.005 32.5054C35.0973 32.473 33.8573 32.6594 33.3386 33.405C32.8767 34.0777 32.7713 35.4393 35.0811 36.5901C36.1509 37.125 37.4557 37.36 38.6551 37.2303C39.344 37.1493 41.3134 36.8413 42.059 35.2772C42.4642 34.4343 42.4237 33.3078 41.9861 32.5054C41.7024 31.9787 41.3539 31.2736 38.7767 30.9494C38.3634 30.9008 35.3323 30.5442 35.0568 30.5036C34.9028 30.4793 34.1896 30.3983 34.4408 30.1227C34.5138 30.0417 34.7245 29.985 34.8541 29.9525C36.4426 29.5149 38.4606 29.5716 40.1382 29.4744C40.5111 29.4501 41.362 29.4014 41.7672 29.2718C42.1563 29.1502 42.4804 28.8746 42.5696 28.4451C42.6182 28.2263 42.5047 28.1209 42.294 28.0075Z" fill="#316777"/>
<path d="M83.6269 29.9611H78.8696C78.8209 28.3159 78.6508 26.6951 78.3752 25.0985C78.3266 24.8229 78.0915 24.6284 77.8079 24.6284H76.5274C76.2761 24.6284 76.0897 24.8553 76.1303 25.1066C76.4301 26.6951 76.6084 28.324 76.6652 29.9693H71.8268C71.608 29.9693 71.4297 30.1475 71.4297 30.3745V31.8333C71.4297 32.0521 71.608 32.2385 71.8268 32.2385H76.6652C76.6084 33.8837 76.4301 35.5046 76.1303 37.1012C76.0816 37.3443 76.2761 37.5793 76.5274 37.5793H77.8079C78.0834 37.5793 78.3266 37.3767 78.3752 37.1093C78.6508 35.5127 78.8209 33.8918 78.8696 32.2466H83.6269C83.8457 32.2466 84.024 32.0683 84.024 31.8414V30.3826C84.024 30.1394 83.8457 29.9611 83.6269 29.9611Z" fill="#316777"/>
<path d="M18.0701 12.3173C18.2565 12.4469 18.524 12.3497 18.7104 12.1471C20.3394 10.3884 22.1304 8.85666 24.1647 7.4708C37.5127 -1.6386 57.1092 -0.309469 68.577 11.2313C72.3456 14.9998 74.4203 19.0521 75.5063 22.2371C75.5874 22.4721 75.8062 22.6261 76.0493 22.6261H77.3623C77.6378 22.6261 77.8323 22.3587 77.7432 22.0993C76.3168 17.8769 73.5532 13.2493 69.5415 9.4807C57.5064 -1.84931 38.0071 -3.1055 24.4159 6.14978C22.1953 7.6491 19.9828 9.56985 18.0458 11.7662C17.8594 11.9769 17.9242 12.2119 18.0701 12.3173Z" fill="#316777"/>
</svg>
