<svg width="24" height="24" viewBox="0 0 24 24" fill="none" xmlns="http://www.w3.org/2000/svg">
<path d="M22 12C22 6.477 17.523 2 12 2C6.477 2 2 6.477 2 12C2 17.523 6.477 22 12 22" stroke="#152B44" stroke-width="1.5" stroke-linecap="round" stroke-linejoin="round"/>
<path d="M13 2.0498C13 2.0498 16 5.9998 16 11.9998M11 21.9498C11 21.9498 8 17.9998 8 11.9998C8 5.9998 11 2.0498 11 2.0498M2.63 15.4998H12M2.63 8.4998H21.37" stroke="#152B44" stroke-width="1.5" stroke-linecap="round" stroke-linejoin="round"/>
<path d="M21.879 17.9171C22.373 18.2211 22.342 18.9601 21.834 19.0181L19.267 19.3091L18.116 21.6211C17.888 22.0801 17.183 21.8551 17.066 21.2871L15.811 15.1711C15.712 14.6911 16.144 14.3891 16.561 14.6461L21.879 17.9171Z" stroke="#152B44" stroke-width="1.5"/>
</svg>
