<svg width="93" height="46" viewBox="0 0 93 46" fill="none" xmlns="http://www.w3.org/2000/svg">
<g clip-path="url(#clip0_1143_4958)">
<path d="M0.0463867 43.8388H0.919567C0.950752 44.1195 1.04431 44.3066 1.16905 44.4002C1.29379 44.5249 1.51208 44.5561 1.79275 44.5561C2.32289 44.5561 2.57237 44.3378 2.57237 43.9324C2.57237 43.7453 2.51 43.5894 2.41645 43.4958C2.32289 43.4022 2.13578 43.3399 1.91749 43.2775L1.44971 43.2151C0.576532 43.0592 0.139942 42.6226 0.139942 41.8742C0.139942 41.4376 0.295867 41.0634 0.576532 40.8139C0.888382 40.5644 1.2626 40.4085 1.76156 40.4085C2.22934 40.4085 2.60356 40.5332 2.88422 40.7827C3.16489 41.0322 3.32081 41.4064 3.352 41.843H2.47882C2.47882 41.5935 2.38526 41.4376 2.26052 41.344C2.13578 41.2505 1.94867 41.1881 1.73038 41.1881C1.4809 41.1881 1.32497 41.2505 1.20023 41.344C1.07549 41.4376 1.01312 41.5935 1.01312 41.8118C1.01312 41.9677 1.07549 42.1237 1.16905 42.2172C1.2626 42.3108 1.44971 42.3731 1.66801 42.4355L2.16697 42.5291C3.00896 42.685 3.41437 43.1216 3.41437 43.9012C3.41437 44.4002 3.25844 44.7744 2.94659 45.0239C2.63474 45.2733 2.22934 45.3981 1.69919 45.3981C1.16905 45.3981 0.763642 45.2733 0.482977 45.0239C0.233497 44.712 0.0775717 44.3378 0.0463867 43.8388ZM7.68672 41.2817V45.3357H6.75117V41.2817H5.50377V40.4708H8.90293V41.2817H7.68672ZM11.5537 44.369L11.273 45.3045H10.3063L12.0214 40.4708H12.7699L14.4851 45.3045H13.5183L13.2377 44.369H11.5537ZM12.3957 41.7494L11.8031 43.6205H12.9882L12.3957 41.7494ZM17.6036 43.3711V45.3357H16.6992V40.502H18.5391C19.0069 40.502 19.3811 40.6268 19.6618 40.8763C19.9424 41.1257 20.0984 41.5 20.0984 41.9365C20.0984 42.2484 20.036 42.5291 19.8801 42.7474C19.7241 42.9657 19.5058 43.1216 19.2564 43.2463L20.3167 45.3669H19.2564L18.352 43.4022H17.6036V43.3711ZM18.4767 42.5914C18.695 42.5914 18.851 42.5291 18.9757 42.4043C19.1004 42.2796 19.1628 42.1237 19.1628 41.9054C19.1628 41.7182 19.1004 41.5623 18.9757 41.4376C18.851 41.3128 18.695 41.2505 18.4767 41.2505H17.6036V42.5602H18.4767V42.5914ZM23.4975 40.4708V44.5249H25.6181V45.3357H22.5932V40.502H23.4975V40.4708ZM28.9237 40.4708V45.3357H28.0194V40.502H28.9237V40.4708ZM35.1919 45.3357H34.2875L32.51 42.3108V45.3357H31.5433V40.502H32.4476L34.2252 43.527V40.502H35.1295V45.3357H35.1919ZM38.6846 43.9636V45.3045H37.7803V40.4708H38.6846V42.7162L40.3686 40.4708H41.4601L39.9008 42.4043L41.5848 45.3045H40.5246L39.3395 43.1528L38.6846 43.9636ZM1.41853 34.4833L0.202312 35.6684H10.9611C39.9632 6.54153 81.72 1.36482 92.3541 0.491634V0.460449C34.3187 3.79725 7.49961 28.6205 1.41853 34.4833Z" fill="black"/>
<path d="M30.9818 35.6675H41.6159L26.8966 24.8151C25.119 26.0313 23.2791 27.4034 21.5327 28.7756L30.9818 35.6675ZM11.5535 13.4014H0.919434L13.3934 22.5386C15.2022 21.3224 17.2916 20.0126 19.225 18.8899L11.5535 13.4014Z" fill="black"/>
</g>
<defs>
<clipPath id="clip0_1143_4958">
<rect width="92.4" height="45" fill="white" transform="translate(0 0.428711)"/>
</clipPath>
</defs>
</svg>
