<svg width="20" height="21" viewBox="0 0 20 21" fill="none" xmlns="http://www.w3.org/2000/svg">
<path fill-rule="evenodd" clip-rule="evenodd" d="M16.2454 2.7501C16.43 2.63903 16.6505 2.6038 16.8606 2.65181C17.0706 2.69982 17.254 2.82734 17.372 3.0076L18.197 4.26594C18.3046 4.43032 18.3506 4.62741 18.327 4.82243C18.3033 5.01744 18.2116 5.19783 18.0679 5.33177L18.0654 5.3351L18.0537 5.34594L18.0062 5.3901L17.8187 5.56927C16.7812 6.57565 15.7752 7.61393 14.802 8.6826C12.9712 10.6959 10.797 13.3309 9.33369 15.8876C8.92535 16.6009 7.92785 16.7543 7.33619 16.1384L1.93202 10.5234C1.85458 10.4429 1.7941 10.3477 1.7542 10.2434C1.7143 10.139 1.69578 10.0277 1.69974 9.9161C1.70371 9.80446 1.73008 9.69477 1.77728 9.59353C1.82448 9.49229 1.89156 9.40157 1.97452 9.32677L3.60785 7.85344C3.75139 7.72403 3.93544 7.64853 4.1285 7.63986C4.32156 7.6312 4.51164 7.68991 4.66619 7.80594L7.42369 9.87344C11.7312 5.62594 14.1737 3.99594 16.2454 2.7501ZM16.4204 4.59677C14.512 5.7901 12.1304 7.52094 8.08869 11.5618C7.94686 11.7036 7.75864 11.7895 7.55857 11.8038C7.35849 11.818 7.16 11.7596 6.99952 11.6393L4.21452 9.55094L3.73035 9.9876L8.16119 14.5926C9.69952 12.0343 11.817 9.4876 13.5695 7.56094C14.4924 6.54717 15.4442 5.5601 16.4237 4.60094L16.4204 4.59677Z" fill="#27AE60"/>
</svg>
