<svg width="20" height="19" viewBox="0 0 20 19" fill="none" xmlns="http://www.w3.org/2000/svg">
<path d="M2 19C1.45 19 0.979333 18.8043 0.588 18.413C0.196667 18.0217 0.000666667 17.5507 0 17V6C0 5.45 0.196 4.97933 0.588 4.588C0.98 4.19667 1.45067 4.00067 2 4H6V2C6 1.45 6.196 0.979333 6.588 0.588C6.98 0.196667 7.45067 0.000666667 8 0H12C12.55 0 13.021 0.196 13.413 0.588C13.805 0.98 14.0007 1.45067 14 2V4H18C18.55 4 19.021 4.196 19.413 4.588C19.805 4.98 20.0007 5.45067 20 6V17C20 17.55 19.8043 18.021 19.413 18.413C19.0217 18.805 18.5507 19.0007 18 19H2ZM8 4H12V2H8V4ZM18 13H13V14C13 14.2833 12.904 14.521 12.712 14.713C12.52 14.905 12.2827 15.0007 12 15H8C7.71667 15 7.47933 14.904 7.288 14.712C7.09667 14.52 7.00067 14.2827 7 14V13H2V17H18V13ZM9 13H11V11H9V13ZM2 11H7V10C7 9.71667 7.096 9.47933 7.288 9.288C7.48 9.09667 7.71733 9.00067 8 9H12C12.2833 9 12.521 9.096 12.713 9.288C12.905 9.48 13.0007 9.71733 13 10V11H18V6H2V11Z" fill="#44474A"/>
</svg>
