<svg width="25" height="25" viewBox="0 0 25 25" fill="none" xmlns="http://www.w3.org/2000/svg">
<path d="M20.4937 6.50806L11.2972 9.49606C11.1893 9.56573 11.0653 9.60653 10.9372 9.61456L7.77816 10.6391H20.9167C21.1156 10.6391 21.3063 10.7181 21.447 10.8587C21.5876 10.9994 21.6667 11.1902 21.6667 11.3891V18.8891C21.6667 19.8836 21.2716 20.8375 20.5683 21.5407C19.865 22.244 18.9112 22.6391 17.9167 22.6391H7.41666C6.4221 22.6391 5.46827 22.244 4.76501 21.5407C4.06175 20.8375 3.66666 19.8836 3.66666 18.8891V11.3891C3.66666 11.2301 3.71616 11.0816 3.80166 10.9586L3.50916 10.0556C3.2019 9.10973 3.28293 8.08059 3.73441 7.1945C4.1859 6.3084 4.97087 5.63793 5.91666 5.33056L15.9022 2.08606C16.848 1.7788 17.8771 1.85983 18.7632 2.31132C19.6493 2.7628 20.3198 3.54777 20.6272 4.49356L20.9752 5.56306C21.0366 5.75223 21.0204 5.95806 20.9301 6.13528C20.8398 6.3125 20.6828 6.44659 20.4937 6.50806ZM14.8777 6.75556L16.8052 3.41656C16.6558 3.4338 16.5086 3.46596 16.3657 3.51256L14.4982 4.11856L12.5362 7.51606L14.8777 6.75556ZM18.3202 3.78706L18.2902 3.84256L17.0092 6.06256L19.3162 5.31256L19.2007 4.95706C19.0458 4.4798 18.7359 4.06798 18.3202 3.78706ZM12.3652 4.81156L10.0252 5.57206L8.06166 8.96956L10.4017 8.20906L12.3652 4.81156ZM5.05116 9.94906L5.93166 9.66406L7.89216 6.26506L6.38016 6.75706C5.81268 6.94149 5.3417 7.34377 5.07081 7.87542C4.79992 8.40708 4.7513 9.02457 4.93566 9.59206L5.05116 9.94906ZM5.16666 12.1391V18.8891C5.16666 19.4858 5.40371 20.0581 5.82567 20.4801C6.24763 20.902 6.81992 21.1391 7.41666 21.1391H17.9167C18.5134 21.1391 19.0857 20.902 19.5076 20.4801C19.9296 20.0581 20.1667 19.4858 20.1667 18.8891V12.1391H5.16666Z" fill="#E5001C"/>
</svg>
