<svg width="25" height="25" viewBox="0 0 25 25" fill="none" xmlns="http://www.w3.org/2000/svg">
<path d="M10.3335 16.5696C10.8335 16.8696 11.5335 17.0696 12.3335 17.0696C13.1335 17.0696 13.8335 16.8696 14.3335 16.5696M15.3335 12.5696H15.3435" stroke="#992EF7" stroke-width="2" stroke-linecap="round" stroke-linejoin="round"/>
<path d="M19.714 7.38258C20.4151 8.40198 20.8985 9.55498 21.134 10.7696C21.4721 10.9333 21.7573 11.1891 21.9568 11.5074C22.1564 11.8258 22.2622 12.1939 22.2622 12.5696C22.2622 12.9453 22.1564 13.3134 21.9568 13.6318C21.7573 13.9501 21.4721 14.2058 21.134 14.3696C20.7023 16.3831 19.5931 18.1876 17.9917 19.4821C16.3902 20.7766 14.3932 21.4828 12.334 21.4828C10.2747 21.4828 8.27777 20.7766 6.6763 19.4821C5.07482 18.1876 3.96569 16.3831 3.53398 14.3696C3.19584 14.2058 2.91067 13.9501 2.71113 13.6318C2.51159 13.3134 2.40576 12.9453 2.40576 12.5696C2.40576 12.1939 2.51159 11.8258 2.71113 11.5074C2.91067 11.1891 3.19584 10.9333 3.53398 10.7696C3.94825 8.74008 5.04988 6.9156 6.65301 5.60395C8.25614 4.29229 10.2626 3.57376 12.334 3.56958C14.334 3.56958 15.834 4.66958 15.834 6.06958C15.834 7.46958 14.934 8.56958 13.834 8.56958C13.034 8.56958 12.334 8.16958 12.334 7.56958M9.33398 12.5696H9.34398" stroke="#992EF7" stroke-width="2" stroke-linecap="round" stroke-linejoin="round"/>
</svg>
