<svg width="25" height="25" viewBox="0 0 25 25" fill="none" xmlns="http://www.w3.org/2000/svg">
<path d="M12.6665 22.5696C11.2832 22.5696 9.98317 22.3069 8.76651 21.7816C7.54984 21.2562 6.49151 20.5439 5.59151 19.6446C4.69151 18.7452 3.97917 17.6869 3.45451 16.4696C2.92984 15.2522 2.66717 13.9522 2.66651 12.5696C2.66584 11.1869 2.92851 9.88691 3.45451 8.66958C3.98051 7.45225 4.69284 6.39391 5.59151 5.49458C6.49017 4.59525 7.54851 3.88291 8.76651 3.35758C9.98451 2.83225 11.2845 2.56958 12.6665 2.56958C14.0485 2.56958 15.3485 2.83225 16.5665 3.35758C17.7845 3.88291 18.8428 4.59525 19.7415 5.49458C20.6402 6.39391 21.3528 7.45225 21.8795 8.66958C22.4062 9.88691 22.6685 11.1869 22.6665 12.5696C22.6645 13.9522 22.4018 15.2522 21.8785 16.4696C21.3552 17.6869 20.6428 18.7452 19.7415 19.6446C18.8402 20.5439 17.7818 21.2566 16.5665 21.7826C15.3512 22.3086 14.0512 22.5709 12.6665 22.5696ZM17.6665 10.0696L19.0165 9.61958L19.4165 8.26958C18.8832 7.46958 18.2415 6.78225 17.4915 6.20758C16.7415 5.63291 15.9165 5.20358 15.0165 4.91958L13.6665 5.86958V7.26958L17.6665 10.0696ZM7.66651 10.0696L11.6665 7.26958V5.86958L10.3165 4.91958C9.4165 5.20291 8.59151 5.63191 7.84151 6.20658C7.09151 6.78125 6.44984 7.46891 5.91651 8.26958L6.31651 9.61958L7.66651 10.0696ZM6.6165 17.7696L7.76651 17.6696L8.51651 16.3196L7.06651 11.9696L5.66651 11.4696L4.66651 12.2196C4.66651 13.3029 4.8165 14.2902 5.1165 15.1816C5.4165 16.0729 5.9165 16.9356 6.6165 17.7696ZM12.6665 20.5696C13.0998 20.5696 13.5248 20.5362 13.9415 20.4696C14.3582 20.4029 14.7665 20.3029 15.1665 20.1696L15.8665 18.6696L15.2165 17.5696H10.1165L9.46651 18.6696L10.1665 20.1696C10.5665 20.3029 10.9748 20.4029 11.3915 20.4696C11.8082 20.5362 12.2332 20.5696 12.6665 20.5696ZM10.4165 15.5696H14.9165L16.3165 11.5696L12.6665 9.01958L9.0665 11.5696L10.4165 15.5696ZM18.7165 17.7696C19.4165 16.9362 19.9165 16.0739 20.2165 15.1826C20.5165 14.2912 20.6665 13.3036 20.6665 12.2196L19.6665 11.5196L18.2665 11.9696L16.8165 16.3196L17.5665 17.6696L18.7165 17.7696Z" fill="#18AF55"/>
</svg>
