<svg width="24" height="25" viewBox="0 0 24 25" fill="none" xmlns="http://www.w3.org/2000/svg">
<path fill-rule="evenodd" clip-rule="evenodd" d="M3.2 5.76958V18.3696H20.8V5.76958H3.2ZM2 5.56958C2 5.30436 2.10536 5.05001 2.29289 4.86247C2.48043 4.67494 2.73478 4.56958 3 4.56958H21C21.2652 4.56958 21.5196 4.67494 21.7071 4.86247C21.8946 5.05001 22 5.30436 22 5.56958V18.5696C22 18.8348 21.8946 19.0892 21.7071 19.2767C21.5196 19.4642 21.2652 19.5696 21 19.5696H3C2.73478 19.5696 2.48043 19.4642 2.29289 19.2767C2.10536 19.0892 2 18.8348 2 18.5696V5.56958ZM8 21.4696C8 21.1386 8.266 20.8696 8.601 20.8696H15.4C15.732 20.8696 16.001 21.1476 16.001 21.4696V22.0696H8V21.4696ZM11.665 9.46558H9.81V15.5696H8.716V9.46558H6.558V8.52358H12.516L14.435 14.3396H14.464L16.388 8.52358H17.555L15.04 15.5696H13.844L11.665 9.46558Z" fill="#437DF9"/>
</svg>
