<svg width="24" height="25" viewBox="0 0 24 25" fill="none" xmlns="http://www.w3.org/2000/svg">
<path d="M20.9998 5.31907V17.1391C20.9996 18.0196 20.7089 18.8754 20.1728 19.5738C19.6366 20.2723 18.885 20.7743 18.0345 21.0021C17.1839 21.2298 16.282 21.1705 15.4686 20.8335C14.6552 20.4964 13.9757 19.9004 13.5355 19.1378C13.0954 18.3752 12.9191 17.4887 13.0341 16.6157C13.1491 15.7428 13.5489 14.9322 14.1716 14.3096C14.7942 13.687 15.6049 13.2873 16.4779 13.1724C17.3508 13.0575 18.2373 13.2338 18.9998 13.6741V9.32007L8.99985 10.9861V18.1391C8.99985 18.1991 8.99485 18.2571 8.98485 18.3131C9.05664 19.082 8.87207 19.8532 8.4599 20.5063C8.04772 21.1595 7.43109 21.6579 6.70607 21.9241C5.98105 22.1902 5.18836 22.209 4.45151 21.9777C3.71466 21.7463 3.07502 21.2777 2.63226 20.6449C2.1895 20.0121 1.96848 19.2506 2.00363 18.4791C2.03878 17.7076 2.32813 16.9694 2.8266 16.3795C3.32507 15.7895 4.00467 15.3811 4.75951 15.2177C5.51435 15.0543 6.30203 15.1451 6.99985 15.4761V6.98607C6.99979 6.51263 7.16768 6.05452 7.47366 5.69325C7.77964 5.33197 8.20386 5.09095 8.67085 5.01307L18.6708 3.34707C18.9573 3.2993 19.2507 3.31448 19.5307 3.39157C19.8107 3.46866 20.0706 3.60581 20.2922 3.79347C20.5139 3.98114 20.692 4.21482 20.8142 4.47828C20.9364 4.74174 20.9997 5.02865 20.9998 5.31907ZM5.49985 17.1391C5.10202 17.1391 4.72049 17.2971 4.43919 17.5784C4.15788 17.8597 3.99985 18.2412 3.99985 18.6391C3.99985 19.0369 4.15788 19.4184 4.43919 19.6997C4.72049 19.981 5.10202 20.1391 5.49985 20.1391C5.89767 20.1391 6.2792 19.981 6.56051 19.6997C6.84181 19.4184 6.99985 19.0369 6.99985 18.6391C6.99985 18.2412 6.84181 17.8597 6.56051 17.5784C6.2792 17.2971 5.89767 17.1391 5.49985 17.1391ZM16.9998 15.1391C16.4694 15.1391 15.9607 15.3498 15.5856 15.7249C15.2106 16.0999 14.9998 16.6086 14.9998 17.1391C14.9998 17.6695 15.2106 18.1782 15.5856 18.5533C15.9607 18.9284 16.4694 19.1391 16.9998 19.1391C17.5303 19.1391 18.039 18.9284 18.4141 18.5533C18.7891 18.1782 18.9998 17.6695 18.9998 17.1391C18.9998 16.6086 18.7891 16.0999 18.4141 15.7249C18.039 15.3498 17.5303 15.1391 16.9998 15.1391ZM18.9998 5.31907L8.99985 6.98607V8.95907L18.9998 7.29207V5.31907Z" fill="#E30077"/>
</svg>
