<svg width="25" height="25" viewBox="0 0 25 25" fill="none" xmlns="http://www.w3.org/2000/svg">
<g clip-path="url(#clip0_1224_1812)">
<path d="M3.3335 4.63916C3.3335 4.83807 3.41251 5.02884 3.55317 5.16949C3.69382 5.31014 3.88458 5.38916 4.0835 5.38916H20.5835C20.7824 5.38916 20.9732 5.31014 21.1138 5.16949C21.2545 5.02884 21.3335 4.83807 21.3335 4.63916C21.3335 4.44025 21.2545 4.24948 21.1138 4.10883C20.9732 3.96818 20.7824 3.88916 20.5835 3.88916H4.0835C3.88458 3.88916 3.69382 3.96818 3.55317 4.10883C3.41251 4.24948 3.3335 4.44025 3.3335 4.63916ZM6.3335 1.63916C6.3335 1.83807 6.41251 2.02884 6.55317 2.16949C6.69382 2.31014 6.88458 2.38916 7.0835 2.38916H17.5835C17.7824 2.38916 17.9732 2.31014 18.1138 2.16949C18.2545 2.02884 18.3335 1.83807 18.3335 1.63916C18.3335 1.44025 18.2545 1.24948 18.1138 1.10883C17.9732 0.968178 17.7824 0.88916 17.5835 0.88916H7.0835C6.88458 0.88916 6.69382 0.968178 6.55317 1.10883C6.41251 1.24948 6.3335 1.44025 6.3335 1.63916ZM10.481 10.0032C10.3675 9.93221 10.237 9.89293 10.1032 9.88942C9.96935 9.8859 9.83702 9.91828 9.71992 9.98318C9.60282 10.0481 9.50523 10.1431 9.43728 10.2585C9.36933 10.3738 9.3335 10.5053 9.3335 10.6392V18.1392C9.3335 18.273 9.36933 18.4045 9.43728 18.5198C9.50523 18.6352 9.60282 18.7302 9.71992 18.7951C9.83702 18.86 9.96935 18.8924 10.1032 18.8889C10.237 18.8854 10.3675 18.8461 10.481 18.7752L16.481 15.0252C16.5889 14.9577 16.6778 14.864 16.7395 14.7527C16.8011 14.6415 16.8335 14.5164 16.8335 14.3892C16.8335 14.262 16.8011 14.1368 16.7395 14.0256C16.6778 13.9143 16.5889 13.8206 16.481 13.7532L10.481 10.0032Z" fill="#FFA500"/>
<path d="M2.5835 21.8892C1.98676 21.8892 1.41446 21.6521 0.992506 21.2302C0.570549 20.8082 0.333496 20.2359 0.333496 19.6392L0.333496 9.13916C0.333496 8.54242 0.570549 7.97013 0.992506 7.54817C1.41446 7.12621 1.98676 6.88916 2.5835 6.88916H22.0835C22.6802 6.88916 23.2525 7.12621 23.6745 7.54817C24.0964 7.97013 24.3335 8.54242 24.3335 9.13916V19.6392C24.3335 20.2359 24.0964 20.8082 23.6745 21.2302C23.2525 21.6521 22.6802 21.8892 22.0835 21.8892H2.5835ZM22.0835 20.3892C22.2824 20.3892 22.4732 20.3101 22.6138 20.1695C22.7545 20.0288 22.8335 19.8381 22.8335 19.6392V9.13916C22.8335 8.94025 22.7545 8.74948 22.6138 8.60883C22.4732 8.46818 22.2824 8.38916 22.0835 8.38916H2.5835C2.38458 8.38916 2.19382 8.46818 2.05317 8.60883C1.91251 8.74948 1.8335 8.94025 1.8335 9.13916V19.6392C1.8335 19.8381 1.91251 20.0288 2.05317 20.1695C2.19382 20.3101 2.38458 20.3892 2.5835 20.3892H22.0835Z" fill="#FFA500"/>
</g>
<defs>
<clipPath id="clip0_1224_1812">
<rect width="24" height="24" fill="white" transform="translate(0.333496 0.13916)"/>
</clipPath>
</defs>
</svg>
