<svg width="48" height="48" viewBox="0 0 48 48" fill="none" xmlns="http://www.w3.org/2000/svg">
<path d="M24.0004 12C17.2004 12 11.0004 14.2 6.00039 18L2.40039 13.2C8.40039 8.6 16.0004 6 24.0004 6C32.0004 6 39.6004 8.6 45.6004 13.2L42.0004 18C37.0004 14.2 30.8004 12 24.0004 12ZM26.0004 38C26.0004 35.4 26.8004 32.8 28.4004 30.8C27.0004 30.4 25.6004 30 24.0004 30C21.4004 30 18.8004 31 16.8004 32.4L24.0004 42L26.0004 39.2V38ZM33.6004 26.8C34.2004 26.6 35.0004 26.4 35.8004 26.2L38.4004 22.8C34.4004 19.8 29.4004 18 24.0004 18C18.6004 18 13.6004 19.8 9.60039 22.8L13.2004 27.6C16.2004 25.4 20.0004 24 24.0004 24C27.6004 24 30.8004 25 33.6004 26.8ZM33.0004 45.2L34.4004 39.6L30.0004 35.8L35.8004 35.4L38.0004 30L40.2004 35.2L46.0004 35.6L41.6004 39.4L43.0004 45L38.0004 42.2L33.0004 45.2Z" fill="#E35706"/>
</svg>
