<svg width="48" height="49" viewBox="0 0 48 49" fill="none" xmlns="http://www.w3.org/2000/svg">
<path d="M24 30.5C27.3137 30.5 30 27.8137 30 24.5C30 21.1863 27.3137 18.5 24 18.5C20.6863 18.5 18 21.1863 18 24.5C18 27.8137 20.6863 30.5 24 30.5Z" stroke="#3EA34B" stroke-width="4"/>
<path d="M27.5309 4.804C26.7969 4.5 25.8649 4.5 24.0009 4.5C22.1369 4.5 21.2049 4.5 20.4709 4.804C19.9853 5.00503 19.544 5.29979 19.1723 5.67145C18.8007 6.0431 18.5059 6.48436 18.3049 6.97C18.1209 7.416 18.0469 7.938 18.0189 8.696C18.0059 9.24386 17.8541 9.77946 17.5778 10.2527C17.3015 10.726 16.9096 11.1214 16.4389 11.402C15.9605 11.6695 15.4221 11.8113 14.874 11.8141C14.3259 11.8169 13.786 11.6806 13.3049 11.418C12.6329 11.062 12.1469 10.866 11.6649 10.802C10.6135 10.6637 9.5503 10.9486 8.7089 11.594C8.0809 12.08 7.6129 12.886 6.6809 14.5C5.7489 16.114 5.2809 16.92 5.1789 17.71C5.11017 18.2309 5.14474 18.7602 5.28063 19.2678C5.41653 19.7753 5.65108 20.2511 5.9709 20.668C6.2669 21.052 6.6809 21.374 7.3229 21.778C8.2689 22.372 8.8769 23.384 8.8769 24.5C8.8769 25.616 8.2689 26.628 7.3229 27.22C6.6809 27.626 6.2649 27.948 5.9709 28.332C5.65108 28.7489 5.41653 29.2247 5.28063 29.7322C5.14474 30.2398 5.11017 30.7691 5.1789 31.29C5.2829 32.078 5.7489 32.886 6.6789 34.5C7.6129 36.114 8.0789 36.92 8.7089 37.406C9.12577 37.7258 9.60157 37.9604 10.1091 38.0963C10.6167 38.2322 11.146 38.2667 11.6669 38.198C12.1469 38.134 12.6329 37.938 13.3049 37.582C13.786 37.3194 14.3259 37.1831 14.874 37.1859C15.4221 37.1887 15.9605 37.3305 16.4389 37.598C17.4049 38.158 17.9789 39.188 18.0189 40.304C18.0469 41.064 18.1189 41.584 18.3049 42.03C18.5059 42.5156 18.8007 42.9569 19.1723 43.3286C19.544 43.7002 19.9853 43.995 20.4709 44.196C21.2049 44.5 22.1369 44.5 24.0009 44.5C25.8649 44.5 26.7969 44.5 27.5309 44.196C28.0165 43.995 28.4578 43.7002 28.8295 43.3286C29.2011 42.9569 29.4959 42.5156 29.6969 42.03C29.8809 41.584 29.9549 41.064 29.9829 40.304C30.0229 39.188 30.5969 38.156 31.5629 37.598C32.0413 37.3305 32.5797 37.1887 33.1278 37.1859C33.6759 37.1831 34.2158 37.3194 34.6969 37.582C35.3689 37.938 35.8549 38.134 36.3349 38.198C36.8558 38.2667 37.3851 38.2322 37.8927 38.0963C38.4002 37.9604 38.876 37.7258 39.2929 37.406C39.9229 36.922 40.3889 36.114 41.3209 34.5C42.2529 32.886 42.7209 32.08 42.8229 31.29C42.8916 30.7691 42.8571 30.2398 42.7212 29.7322C42.5853 29.2247 42.3507 28.7489 42.0309 28.332C41.7349 27.948 41.3209 27.626 40.6789 27.222C40.2108 26.9368 39.8226 26.5375 39.5508 26.0614C39.2791 25.5854 39.1325 25.0481 39.1249 24.5C39.1249 23.384 39.7329 22.372 40.6789 21.78C41.3209 21.374 41.7369 21.052 42.0309 20.668C42.3507 20.2511 42.5853 19.7753 42.7212 19.2678C42.8571 18.7602 42.8916 18.2309 42.8229 17.71C42.7189 16.922 42.2529 16.114 41.3229 14.5C40.3889 12.886 39.9229 12.08 39.2929 11.594C38.876 11.2742 38.4002 11.0396 37.8927 10.9037C37.3851 10.7678 36.8558 10.7333 36.3349 10.802C35.8549 10.866 35.3689 11.062 34.6949 11.418C34.2141 11.6803 33.6746 11.8164 33.1268 11.8136C32.5791 11.8108 32.041 11.6692 31.5629 11.402C31.0922 11.1214 30.7003 10.726 30.424 10.2527C30.1477 9.77946 29.9959 9.24386 29.9829 8.696C29.9549 7.936 29.8829 7.416 29.6969 6.97C29.4959 6.48436 29.2011 6.0431 28.8295 5.67145C28.4578 5.29979 28.0165 5.00503 27.5309 4.804Z" stroke="#3EA34B" stroke-width="4"/>
</svg>
