<svg width="48" height="48" viewBox="0 0 48 48" fill="none" xmlns="http://www.w3.org/2000/svg">
<g clip-path="url(#clip0_1227_2338)">
<path d="M16.2708 8.70794e-05C15.8431 0.0814331 15.4579 0.311315 15.1832 0.649127C14.9086 0.986938 14.7622 1.41094 14.7698 1.84624V3.69239H8.13476C6.65783 3.69239 5.53906 4.81116 5.53906 6.28809V45.2309C5.53906 46.8924 6.65783 48.0001 8.13476 48.0001H39.6929C41.1698 48.0001 42.2886 46.8813 42.2886 45.4044V6.28809C42.4732 4.81116 41.3434 3.69239 39.8664 3.69239H33.2314V1.84624C33.2314 1.35661 33.0369 0.887034 32.6906 0.540813C32.3444 0.194592 31.8748 8.70794e-05 31.3852 8.70794e-05H16.616C16.5582 -0.00263319 16.5003 -0.00263319 16.4424 8.70794e-05C16.3846 -0.00263319 16.3286 -0.00263319 16.2708 8.70794e-05ZM18.4621 3.69239H29.5391V7.3847H18.4621V3.69239ZM9.23137 7.3847H14.7698V9.23086C14.7698 9.72049 14.9643 10.1901 15.3106 10.5363C15.6568 10.8825 16.1264 11.077 16.616 11.077H31.3852C31.8748 11.077 32.3444 10.8825 32.6906 10.5363C33.0369 10.1901 33.2314 9.72049 33.2314 9.23086V7.3847H38.7698V44.3078H9.23137V7.3847ZM12.9237 16.6155V24.0001H20.3083V16.6155H12.9237ZM14.7698 18.4616H18.4621V22.1539H14.7698V18.4616ZM24.0006 18.4616V22.1539H35.0775V18.4616H24.0006ZM12.9237 27.6924V35.077H20.3083V27.6924H12.9237ZM24.0006 29.5385V33.2309H35.0775V29.5385H24.0006Z" fill="#2A63F3"/>
</g>
<defs>
<clipPath id="clip0_1227_2338">
<rect width="48" height="48" fill="white"/>
</clipPath>
</defs>
</svg>
