<svg width="18" height="18" viewBox="0 0 18 18" fill="none" xmlns="http://www.w3.org/2000/svg">
<path d="M9.00034 0C6.55403 0 6.24915 0.0118125 5.29178 0.0523125C4.33047 0.0995625 3.68022 0.248625 3.10647 0.471375C2.506 0.698123 1.96219 1.05305 1.5129 1.51144C1.05381 1.96014 0.698773 2.50412 0.47284 3.105C0.25009 3.67875 0.101027 4.329 0.0537774 5.29031C0.0104648 6.24825 0.00146484 6.55256 0.00146484 8.99888C0.00146484 11.4452 0.0132773 11.7501 0.0537774 12.7074C0.101027 13.6659 0.25009 14.319 0.47284 14.8928C0.699588 15.4932 1.05452 16.037 1.5129 16.4863C1.96161 16.9454 2.50559 17.3004 3.10647 17.5264C3.68022 17.7463 4.33328 17.8982 5.29178 17.9454C6.24972 17.9888 6.55403 17.9978 9.00034 17.9978C11.4467 17.9978 11.7515 17.9859 12.7089 17.9454C13.6674 17.8982 14.3205 17.7458 14.8942 17.5264C15.4947 17.2996 16.0385 16.9447 16.4878 16.4863C16.9483 16.0388 17.3036 15.4945 17.5278 14.8928C17.7478 14.319 17.8997 13.6659 17.9469 12.7074C17.9902 11.7495 17.9992 11.4452 17.9992 8.99888C17.9992 6.55256 17.9874 6.24769 17.9469 5.29031C17.8997 4.33181 17.7472 3.67538 17.5278 3.105C17.3011 2.50453 16.9462 1.96072 16.4878 1.51144C16.0403 1.05091 15.4959 0.695644 14.8942 0.471375C14.3205 0.248625 13.6674 0.0995625 12.7089 0.0523125C11.751 0.009 11.4467 0 9.00034 0ZM9.00034 1.62C11.4028 1.62 11.6897 1.63181 12.6392 1.67231C13.515 1.71338 13.992 1.85963 14.3087 1.98338C14.7001 2.12808 15.0544 2.35808 15.3459 2.65669C15.6446 2.94646 15.8739 3.30011 16.0164 3.69113C16.1402 4.00781 16.2864 4.48481 16.3275 5.36063C16.368 6.31013 16.3798 6.59756 16.3798 8.99944C16.3798 11.4013 16.368 11.6888 16.3241 12.6383C16.2768 13.5141 16.1306 13.9911 16.0074 14.3078C15.837 14.7302 15.6468 15.0255 15.333 15.345C15.0406 15.6419 14.6865 15.8708 14.2957 16.0155C13.983 16.1393 13.4992 16.2855 12.62 16.3266C11.6655 16.3671 11.3842 16.3789 8.97559 16.3789C6.56697 16.3789 6.28628 16.3671 5.33059 16.3232C4.45478 16.2759 3.97159 16.1297 3.6549 16.0065C3.2274 15.8361 2.93434 15.6459 2.62047 15.3321C2.30378 15.0154 2.1024 14.7139 1.94715 14.2948C1.82115 13.9821 1.67715 13.4983 1.63046 12.6191C1.5984 11.6758 1.58321 11.3833 1.58321 8.98594C1.58321 6.58969 1.5984 6.29663 1.63046 5.3415C1.67715 4.46231 1.82115 3.97969 1.94715 3.66581C2.1024 3.23775 2.30434 2.94525 2.62047 2.62856C2.93378 2.31525 3.2274 2.11275 3.6549 1.95413C3.97159 1.83094 4.44297 1.68469 5.32215 1.64081C6.27672 1.6065 6.55797 1.59413 8.96322 1.59413L9.00034 1.62ZM9.00034 4.38019C8.3936 4.37997 7.79275 4.49931 7.23215 4.7314C6.67155 4.96349 6.16218 5.30377 5.73315 5.73281C5.30411 6.16184 4.96383 6.67121 4.73174 7.23181C4.49965 7.79241 4.38031 8.39326 4.38053 9C4.38031 9.60675 4.49965 10.2076 4.73174 10.7682C4.96383 11.3288 5.30411 11.8382 5.73315 12.2672C6.16218 12.6962 6.67155 13.0365 7.23215 13.2686C7.79275 13.5007 8.3936 13.62 9.00034 13.6198C9.60709 13.62 10.2079 13.5007 10.7685 13.2686C11.3291 13.0365 11.8385 12.6962 12.2675 12.2672C12.6966 11.8382 13.0369 11.3288 13.2689 10.7682C13.501 10.2076 13.6204 9.60675 13.6202 9C13.6204 8.39326 13.501 7.79241 13.2689 7.23181C13.0369 6.67121 12.6966 6.16184 12.2675 5.73281C11.8385 5.30377 11.3291 4.96349 10.7685 4.7314C10.2079 4.49931 9.60709 4.37997 9.00034 4.38019ZM9.00034 11.9998C7.34209 11.9998 6.00053 10.6583 6.00053 9C6.00053 7.34175 7.34209 6.00019 9.00034 6.00019C10.6586 6.00019 12.0002 7.34175 12.0002 9C12.0002 10.6583 10.6586 11.9998 9.00034 11.9998ZM14.8863 4.19569C14.886 4.48237 14.7719 4.75722 14.5691 4.95983C14.3663 5.16244 14.0913 5.27625 13.8047 5.27625C13.6629 5.27625 13.5225 5.24833 13.3916 5.19408C13.2606 5.13984 13.1416 5.06033 13.0414 4.96009C12.9411 4.85986 12.8616 4.74086 12.8074 4.6099C12.7531 4.47893 12.7252 4.33857 12.7252 4.19681C12.7252 4.05506 12.7531 3.91469 12.8074 3.78373C12.8616 3.65277 12.9411 3.53377 13.0414 3.43354C13.1416 3.3333 13.2606 3.25379 13.3916 3.19954C13.5225 3.1453 13.6629 3.11738 13.8047 3.11738C14.3992 3.11738 14.8863 3.60113 14.8863 4.19569Z" fill="#152B44"/>
</svg>
