<svg width="43" height="60" viewBox="0 0 43 60" fill="none" xmlns="http://www.w3.org/2000/svg">
<path d="M8.98 6.76C10.9 5.53333 13.0333 4.57333 15.38 3.88C17.7267 3.13333 20.3133 2.76 23.14 2.76C28.42 2.76 32.58 4.17333 35.62 7C38.7133 9.82667 40.26 13.7733 40.26 18.84C40.26 20.9733 39.9933 22.9733 39.46 24.84C38.9267 26.7067 38.18 28.4933 37.22 30.2C36.26 31.8533 35.1133 33.48 33.78 35.08C32.5 36.6267 31.0867 38.1467 29.54 39.64C27.8867 41.24 26.3133 42.7333 24.82 44.12C23.3267 45.5067 21.86 46.84 20.42 48.12H40.74V57H7.62L6.1 50.6C7.54 49.1067 8.84667 47.7467 10.02 46.52C11.2467 45.2933 12.3933 44.1467 13.46 43.08C14.5267 41.96 15.54 40.8667 16.5 39.8C17.5133 38.7333 18.5533 37.6133 19.62 36.44C20.7933 35.1067 21.9667 33.7733 23.14 32.44C24.3133 31.1067 25.3267 29.7467 26.18 28.36C27.0867 26.9733 27.8067 25.56 28.34 24.12C28.9267 22.68 29.22 21.2133 29.22 19.72C29.22 17.2133 28.5 15.2667 27.06 13.88C25.62 12.44 23.62 11.72 21.06 11.72C19.0867 11.72 17.3267 11.9867 15.78 12.52C14.2333 13 12.82 13.64 11.54 14.44L8.98 6.76Z" fill="#BB9C60"/>
<path d="M4.98 4.76C6.9 3.53333 9.03333 2.57333 11.38 1.88C13.7267 1.13333 16.3133 0.759997 19.14 0.759997C24.42 0.759997 28.58 2.17333 31.62 5C34.7133 7.82667 36.26 11.7733 36.26 16.84C36.26 18.9733 35.9933 20.9733 35.46 22.84C34.9267 24.7067 34.18 26.4933 33.22 28.2C32.26 29.8533 31.1133 31.48 29.78 33.08C28.5 34.6267 27.0867 36.1467 25.54 37.64C23.8867 39.24 22.3133 40.7333 20.82 42.12C19.3267 43.5067 17.86 44.84 16.42 46.12H36.74V55H3.62L2.1 48.6C3.54 47.1067 4.84667 45.7467 6.02 44.52C7.24667 43.2933 8.39333 42.1467 9.46 41.08C10.5267 39.96 11.54 38.8667 12.5 37.8C13.5133 36.7333 14.5533 35.6133 15.62 34.44C16.7933 33.1067 17.9667 31.7733 19.14 30.44C20.3133 29.1067 21.3267 27.7467 22.18 26.36C23.0867 24.9733 23.8067 23.56 24.34 22.12C24.9267 20.68 25.22 19.2133 25.22 17.72C25.22 15.2133 24.5 13.2667 23.06 11.88C21.62 10.44 19.62 9.72 17.06 9.72C15.0867 9.72 13.3267 9.98666 11.78 10.52C10.2333 11 8.82 11.64 7.54 12.44L4.98 4.76Z" fill="#F9B122"/>
</svg>
