<svg width="41" height="60" viewBox="0 0 41 60" fill="none" xmlns="http://www.w3.org/2000/svg">
<path d="M39.1 43.52C39.1 45.92 38.5933 48.08 37.58 50C36.62 51.8667 35.2867 53.4667 33.58 54.8C31.9267 56.1333 29.9533 57.1733 27.66 57.92C25.3667 58.6133 22.9133 58.96 20.3 58.96C17.8467 58.96 15.3667 58.6933 12.86 58.16C10.3533 57.6267 8.16667 56.9333 6.3 56.08L8.14 47.76C9.79333 48.5067 11.5 49.12 13.26 49.6C15.0733 50.0267 16.9933 50.24 19.02 50.24C22.06 50.24 24.3267 49.5733 25.82 48.24C27.3133 46.9067 28.06 45.2267 28.06 43.2C28.06 40.48 26.94 38.5333 24.7 37.36C22.46 36.1333 19.58 35.52 16.06 35.52H11.58V26.64H14.54C18.4867 26.64 21.5267 25.92 23.66 24.48C25.8467 23.04 26.94 21.0667 26.94 18.56C26.94 16.64 26.2733 15.1733 24.94 14.16C23.66 13.0933 21.82 12.56 19.42 12.56C16.0067 12.56 12.8067 13.3067 9.82 14.8L7.9 6.88C9.60667 5.92 11.66 5.17333 14.06 4.64C16.5133 4.05333 19.0467 3.76 21.66 3.76C23.9533 3.76 26.0867 4.05333 28.06 4.64C30.0867 5.22666 31.82 6.08 33.26 7.2C34.7533 8.32 35.9 9.68 36.7 11.28C37.5533 12.88 37.98 14.6933 37.98 16.72C37.98 19.76 37.1267 22.4533 35.42 24.8C33.7667 27.0933 31.2867 28.9333 27.98 30.32C29.4733 30.7467 30.8867 31.36 32.22 32.16C33.6067 32.9067 34.8067 33.84 35.82 34.96C36.8333 36.0267 37.6333 37.28 38.22 38.72C38.8067 40.16 39.1 41.76 39.1 43.52Z" fill="#BB9C60"/>
<path d="M35.1 41.52C35.1 43.92 34.5933 46.08 33.58 48C32.62 49.8667 31.2867 51.4667 29.58 52.8C27.9267 54.1333 25.9533 55.1733 23.66 55.92C21.3667 56.6133 18.9133 56.96 16.3 56.96C13.8467 56.96 11.3667 56.6933 8.86 56.16C6.35333 55.6267 4.16667 54.9333 2.3 54.08L4.14 45.76C5.79333 46.5067 7.5 47.12 9.26 47.6C11.0733 48.0267 12.9933 48.24 15.02 48.24C18.06 48.24 20.3267 47.5733 21.82 46.24C23.3133 44.9067 24.06 43.2267 24.06 41.2C24.06 38.48 22.94 36.5333 20.7 35.36C18.46 34.1333 15.58 33.52 12.06 33.52H7.58V24.64H10.54C14.4867 24.64 17.5267 23.92 19.66 22.48C21.8467 21.04 22.94 19.0667 22.94 16.56C22.94 14.64 22.2733 13.1733 20.94 12.16C19.66 11.0933 17.82 10.56 15.42 10.56C12.0067 10.56 8.80667 11.3067 5.82 12.8L3.9 4.88C5.60667 3.92 7.66 3.17333 10.06 2.64C12.5133 2.05333 15.0467 1.76 17.66 1.76C19.9533 1.76 22.0867 2.05333 24.06 2.64C26.0867 3.22666 27.82 4.08 29.26 5.2C30.7533 6.32 31.9 7.68 32.7 9.28C33.5533 10.88 33.98 12.6933 33.98 14.72C33.98 17.76 33.1267 20.4533 31.42 22.8C29.7667 25.0933 27.2867 26.9333 23.98 28.32C25.4733 28.7467 26.8867 29.36 28.22 30.16C29.6067 30.9067 30.8067 31.84 31.82 32.96C32.8333 34.0267 33.6333 35.28 34.22 36.72C34.8067 38.16 35.1 39.76 35.1 41.52Z" fill="#F9B122"/>
</svg>
