<svg width="25" height="25" viewBox="0 0 25 25" fill="none" xmlns="http://www.w3.org/2000/svg">
<path d="M4.3335 20.1392C3.7835 20.1392 3.31283 19.9435 2.9215 19.5522C2.53016 19.1608 2.33416 18.6898 2.3335 18.1392V6.13916C2.3335 5.58916 2.5295 5.11849 2.9215 4.72716C3.3135 4.33583 3.78416 4.13983 4.3335 4.13916H20.3335C20.8835 4.13916 21.3545 4.33516 21.7465 4.72716C22.1385 5.11916 22.3342 5.58983 22.3335 6.13916V18.1392C22.3335 18.6892 22.1378 19.1602 21.7465 19.5522C21.3552 19.9442 20.8842 20.1398 20.3335 20.1392H4.3335ZM12.3335 13.1392L4.3335 8.13916V18.1392H20.3335V8.13916L12.3335 13.1392ZM12.3335 11.1392L20.3335 6.13916H4.3335L12.3335 11.1392ZM4.3335 8.13916V6.13916V18.1392V8.13916Z" fill="#349489"/>
</svg>
