<svg width="25" height="25" viewBox="0 0 25 25" fill="none" xmlns="http://www.w3.org/2000/svg">
<path d="M12.3335 17.5696C11.8031 17.5696 11.2944 17.3589 10.9193 16.9838C10.5442 16.6087 10.3335 16.1 10.3335 15.5696C10.3335 14.4596 11.2235 13.5696 12.3335 13.5696C12.8639 13.5696 13.3726 13.7803 13.7477 14.1554C14.1228 14.5304 14.3335 15.0391 14.3335 15.5696C14.3335 16.1 14.1228 16.6087 13.7477 16.9838C13.3726 17.3589 12.8639 17.5696 12.3335 17.5696ZM18.3335 20.5696V10.5696H6.3335V20.5696H18.3335ZM18.3335 8.56958C18.8639 8.56958 19.3726 8.78029 19.7477 9.15537C20.1228 9.53044 20.3335 10.0391 20.3335 10.5696V20.5696C20.3335 21.1 20.1228 21.6087 19.7477 21.9838C19.3726 22.3589 18.8639 22.5696 18.3335 22.5696H6.3335C5.80306 22.5696 5.29436 22.3589 4.91928 21.9838C4.54421 21.6087 4.3335 21.1 4.3335 20.5696V10.5696C4.3335 9.45958 5.2235 8.56958 6.3335 8.56958H7.3335V6.56958C7.3335 5.2435 7.86028 3.97173 8.79796 3.03405C9.73564 2.09636 11.0074 1.56958 12.3335 1.56958C12.9901 1.56958 13.6403 1.69891 14.2469 1.95018C14.8535 2.20146 15.4047 2.56975 15.869 3.03405C16.3333 3.49834 16.7016 4.04953 16.9529 4.65616C17.2042 5.26279 17.3335 5.91297 17.3335 6.56958V8.56958H18.3335ZM12.3335 3.56958C11.5378 3.56958 10.7748 3.88565 10.2122 4.44826C9.64957 5.01087 9.3335 5.77393 9.3335 6.56958V8.56958H15.3335V6.56958C15.3335 5.77393 15.0174 5.01087 14.4548 4.44826C13.8922 3.88565 13.1291 3.56958 12.3335 3.56958Z" fill="#992EF7"/>
</svg>
