<svg width="25" height="25" viewBox="0 0 25 25" fill="none" xmlns="http://www.w3.org/2000/svg">
<path d="M15.6665 17.1392C15.4687 17.1392 15.2754 17.1978 15.1109 17.3077C14.9465 17.4176 14.8183 17.5738 14.7426 17.7565C14.6669 17.9392 14.6471 18.1403 14.6857 18.3343C14.7243 18.5282 14.8195 18.7064 14.9594 18.8463C15.0992 18.9861 15.2774 19.0814 15.4714 19.1199C15.6654 19.1585 15.8665 19.1387 16.0492 19.063C16.2319 18.9874 16.3881 18.8592 16.498 18.6947C16.6079 18.5303 16.6665 18.3369 16.6665 18.1392C16.6665 17.8739 16.5611 17.6196 16.3736 17.4321C16.1861 17.2445 15.9317 17.1392 15.6665 17.1392ZM9.6665 17.1392H6.6665C6.40129 17.1392 6.14693 17.2445 5.9594 17.4321C5.77186 17.6196 5.6665 17.8739 5.6665 18.1392C5.6665 18.4044 5.77186 18.6587 5.9594 18.8463C6.14693 19.0338 6.40129 19.1392 6.6665 19.1392H9.6665C9.93172 19.1392 10.1861 19.0338 10.3736 18.8463C10.5611 18.6587 10.6665 18.4044 10.6665 18.1392C10.6665 17.8739 10.5611 17.6196 10.3736 17.4321C10.1861 17.2445 9.93172 17.1392 9.6665 17.1392ZM18.6665 17.1392C18.4687 17.1392 18.2754 17.1978 18.1109 17.3077C17.9465 17.4176 17.8183 17.5738 17.7426 17.7565C17.6669 17.9392 17.6471 18.1403 17.6857 18.3343C17.7243 18.5282 17.8195 18.7064 17.9594 18.8463C18.0992 18.9861 18.2774 19.0814 18.4714 19.1199C18.6654 19.1585 18.8665 19.1387 19.0492 19.063C19.2319 18.9874 19.3881 18.8592 19.498 18.6947C19.6079 18.5303 19.6665 18.3369 19.6665 18.1392C19.6665 17.8739 19.5611 17.6196 19.3736 17.4321C19.1861 17.2445 18.9317 17.1392 18.6665 17.1392ZM15.6665 11.1392C15.4687 11.1392 15.2754 11.1978 15.1109 11.3077C14.9465 11.4176 14.8183 11.5738 14.7426 11.7565C14.6669 11.9392 14.6471 12.1403 14.6857 12.3343C14.7243 12.5282 14.8195 12.7064 14.9594 12.8463C15.0992 12.9861 15.2774 13.0814 15.4714 13.1199C15.6654 13.1585 15.8665 13.1387 16.0492 13.063C16.2319 12.9874 16.3881 12.8592 16.498 12.6947C16.6079 12.5303 16.6665 12.3369 16.6665 12.1392C16.6665 11.8739 16.5611 11.6196 16.3736 11.4321C16.1861 11.2445 15.9317 11.1392 15.6665 11.1392ZM9.6665 11.1392H6.6665C6.40129 11.1392 6.14693 11.2445 5.9594 11.4321C5.77186 11.6196 5.6665 11.8739 5.6665 12.1392C5.6665 12.4044 5.77186 12.6587 5.9594 12.8463C6.14693 13.0338 6.40129 13.1392 6.6665 13.1392H9.6665C9.93172 13.1392 10.1861 13.0338 10.3736 12.8463C10.5611 12.6587 10.6665 12.4044 10.6665 12.1392C10.6665 11.8739 10.5611 11.6196 10.3736 11.4321C10.1861 11.2445 9.93172 11.1392 9.6665 11.1392ZM18.6665 5.13916C18.4687 5.13916 18.2754 5.19781 18.1109 5.30769C17.9465 5.41757 17.8183 5.57375 17.7426 5.75648C17.6669 5.9392 17.6471 6.14027 17.6857 6.33425C17.7243 6.52823 17.8195 6.70641 17.9594 6.84627C18.0992 6.98612 18.2774 7.08136 18.4714 7.11995C18.6654 7.15853 18.8665 7.13873 19.0492 7.06304C19.2319 6.98735 19.3881 6.85918 19.498 6.69473C19.6079 6.53028 19.6665 6.33694 19.6665 6.13916C19.6665 5.87394 19.5611 5.61959 19.3736 5.43205C19.1861 5.24452 18.9317 5.13916 18.6665 5.13916ZM18.6665 11.1392C18.4687 11.1392 18.2754 11.1978 18.1109 11.3077C17.9465 11.4176 17.8183 11.5738 17.7426 11.7565C17.6669 11.9392 17.6471 12.1403 17.6857 12.3343C17.7243 12.5282 17.8195 12.7064 17.9594 12.8463C18.0992 12.9861 18.2774 13.0814 18.4714 13.1199C18.6654 13.1585 18.8665 13.1387 19.0492 13.063C19.2319 12.9874 19.3881 12.8592 19.498 12.6947C19.6079 12.5303 19.6665 12.3369 19.6665 12.1392C19.6665 11.8739 19.5611 11.6196 19.3736 11.4321C19.1861 11.2445 18.9317 11.1392 18.6665 11.1392ZM22.6665 5.13916C22.6665 4.34351 22.3504 3.58045 21.7878 3.01784C21.2252 2.45523 20.4622 2.13916 19.6665 2.13916H5.6665C4.87085 2.13916 4.10779 2.45523 3.54518 3.01784C2.98257 3.58045 2.6665 4.34351 2.6665 5.13916V7.13916C2.67091 7.87921 2.94871 8.59152 3.4465 9.13916C2.94871 9.6868 2.67091 10.3991 2.6665 11.1392V13.1392C2.67091 13.8792 2.94871 14.5915 3.4465 15.1392C2.94871 15.6868 2.67091 16.3991 2.6665 17.1392V19.1392C2.6665 19.9348 2.98257 20.6979 3.54518 21.2605C4.10779 21.8231 4.87085 22.1392 5.6665 22.1392H19.6665C20.4622 22.1392 21.2252 21.8231 21.7878 21.2605C22.3504 20.6979 22.6665 19.9348 22.6665 19.1392V17.1392C22.6621 16.3991 22.3843 15.6868 21.8865 15.1392C22.3843 14.5915 22.6621 13.8792 22.6665 13.1392V11.1392C22.6621 10.3991 22.3843 9.6868 21.8865 9.13916C22.3843 8.59152 22.6621 7.87921 22.6665 7.13916V5.13916ZM20.6665 19.1392C20.6665 19.4044 20.5611 19.6587 20.3736 19.8463C20.1861 20.0338 19.9317 20.1392 19.6665 20.1392H5.6665C5.40129 20.1392 5.14693 20.0338 4.9594 19.8463C4.77186 19.6587 4.6665 19.4044 4.6665 19.1392V17.1392C4.6665 16.8739 4.77186 16.6196 4.9594 16.4321C5.14693 16.2445 5.40129 16.1392 5.6665 16.1392H19.6665C19.9317 16.1392 20.1861 16.2445 20.3736 16.4321C20.5611 16.6196 20.6665 16.8739 20.6665 17.1392V19.1392ZM20.6665 13.1392C20.6665 13.4044 20.5611 13.6587 20.3736 13.8463C20.1861 14.0338 19.9317 14.1392 19.6665 14.1392H5.6665C5.40129 14.1392 5.14693 14.0338 4.9594 13.8463C4.77186 13.6587 4.6665 13.4044 4.6665 13.1392V11.1392C4.6665 10.8739 4.77186 10.6196 4.9594 10.4321C5.14693 10.2445 5.40129 10.1392 5.6665 10.1392H19.6665C19.9317 10.1392 20.1861 10.2445 20.3736 10.4321C20.5611 10.6196 20.6665 10.8739 20.6665 11.1392V13.1392ZM20.6665 7.13916C20.6665 7.40438 20.5611 7.65873 20.3736 7.84627C20.1861 8.0338 19.9317 8.13916 19.6665 8.13916H5.6665C5.40129 8.13916 5.14693 8.0338 4.9594 7.84627C4.77186 7.65873 4.6665 7.40438 4.6665 7.13916V5.13916C4.6665 4.87394 4.77186 4.61959 4.9594 4.43205C5.14693 4.24452 5.40129 4.13916 5.6665 4.13916H19.6665C19.9317 4.13916 20.1861 4.24452 20.3736 4.43205C20.5611 4.61959 20.6665 4.87394 20.6665 5.13916V7.13916ZM15.6665 5.13916C15.4687 5.13916 15.2754 5.19781 15.1109 5.30769C14.9465 5.41757 14.8183 5.57375 14.7426 5.75648C14.6669 5.9392 14.6471 6.14027 14.6857 6.33425C14.7243 6.52823 14.8195 6.70641 14.9594 6.84627C15.0992 6.98612 15.2774 7.08136 15.4714 7.11995C15.6654 7.15853 15.8665 7.13873 16.0492 7.06304C16.2319 6.98735 16.3881 6.85918 16.498 6.69473C16.6079 6.53028 16.6665 6.33694 16.6665 6.13916C16.6665 5.87394 16.5611 5.61959 16.3736 5.43205C16.1861 5.24452 15.9317 5.13916 15.6665 5.13916ZM9.6665 5.13916H6.6665C6.40129 5.13916 6.14693 5.24452 5.9594 5.43205C5.77186 5.61959 5.6665 5.87394 5.6665 6.13916C5.6665 6.40438 5.77186 6.65873 5.9594 6.84627C6.14693 7.0338 6.40129 7.13916 6.6665 7.13916H9.6665C9.93172 7.13916 10.1861 7.0338 10.3736 6.84627C10.5611 6.65873 10.6665 6.40438 10.6665 6.13916C10.6665 5.87394 10.5611 5.61959 10.3736 5.43205C10.1861 5.24452 9.93172 5.13916 9.6665 5.13916Z" fill="#E35807"/>
</svg>
