<svg width="25" height="25" viewBox="0 0 25 25" fill="none" xmlns="http://www.w3.org/2000/svg">
<g clip-path="url(#clip0_1224_2162)">
<path d="M17.1434 13.0975C19.1945 13.0975 20.8659 11.2705 20.8659 9.04746C20.8659 6.84974 19.2031 5.10889 17.1434 5.10889C15.1008 5.10889 13.4204 6.87546 13.4204 9.0646C13.4289 11.279 15.1008 13.0975 17.1434 13.0975ZM7.21593 13.2869C8.99108 13.2869 10.4474 11.6926 10.4474 9.7366C10.4474 7.82346 9.00822 6.28103 7.21593 6.28103C5.44079 6.28103 3.97593 7.8496 3.9845 9.75374C3.99308 11.7016 5.44079 13.2869 7.21593 13.2869ZM17.1434 11.7963C15.8851 11.7963 14.8076 10.5899 14.8076 9.0646C14.8076 7.5646 15.8679 6.41046 17.1434 6.41046C18.4274 6.41046 19.4786 7.54789 19.4786 9.04703C19.4786 10.5727 18.4188 11.7963 17.1434 11.7963ZM7.21593 12.0029C6.16465 12.0029 5.2685 10.9949 5.2685 9.75374C5.2685 8.53874 6.15565 7.56503 7.21593 7.56503C8.3015 7.56503 9.17193 8.5216 9.17193 9.7366C9.17193 10.9949 8.27579 12.0029 7.21593 12.0029ZM2.4245 21.1893H9.1895C8.7755 20.9566 8.45665 20.4393 8.51708 19.9139H2.20936C2.03708 19.9139 1.95093 19.8453 1.95093 19.6812C1.95093 17.5443 4.3895 15.545 7.20779 15.545C8.29336 15.545 9.26707 15.8035 10.1032 16.2946C10.3806 15.9435 10.7088 15.6356 11.0769 15.3813C9.96522 14.6485 8.62979 14.2696 7.20779 14.2696C3.59665 14.2696 0.666504 16.889 0.666504 19.7587C0.666504 20.7153 1.25236 21.1893 2.4245 21.1893ZM11.7314 21.1893H22.5554C23.9855 21.1893 24.6665 20.7586 24.6665 19.8106C24.6665 17.5529 21.8139 14.2863 17.1434 14.2863C12.4638 14.2863 9.61165 17.5529 9.61165 19.8106C9.61165 20.7586 10.2922 21.1893 11.7314 21.1893ZM11.3178 19.8882C11.0936 19.8882 10.9989 19.8282 10.9989 19.6469C10.9989 18.2335 13.1876 15.5883 17.1434 15.5883C21.0905 15.5883 23.2788 18.2335 23.2788 19.6469C23.2788 19.8277 23.1931 19.8882 22.9685 19.8882H11.3178Z" fill="#18AF55"/>
</g>
<defs>
<clipPath id="clip0_1224_2162">
<rect width="24" height="24" fill="white" transform="translate(0.666504 0.56958)"/>
</clipPath>
</defs>
</svg>
