<svg width="24" height="25" viewBox="0 0 24 25" fill="none" xmlns="http://www.w3.org/2000/svg">
<path d="M12.702 2.33428L19.702 4.95928C20.0833 5.10221 20.4119 5.35814 20.6438 5.69284C20.8758 6.02754 21.0001 6.42506 21 6.83228V12.1953C21 13.8667 20.5346 15.5051 19.6559 16.9269C18.7772 18.3487 17.52 19.4978 16.025 20.2453L12.671 21.9223C12.4627 22.0265 12.2329 22.0807 12 22.0807C11.7671 22.0807 11.5373 22.0265 11.329 21.9223L7.975 20.2453C6.48004 19.4978 5.22277 18.3487 4.34407 16.9269C3.46537 15.5051 2.99996 13.8667 3 12.1953V6.83228C2.99995 6.42506 3.1242 6.02754 3.35615 5.69284C3.5881 5.35814 3.91669 5.10221 4.298 4.95928L11.298 2.33428C11.7506 2.16461 12.2494 2.16461 12.702 2.33428ZM12 4.20728L5 6.83228V12.1953C5.00023 13.4951 5.36239 14.7693 6.04592 15.8749C6.72944 16.9806 7.70732 17.8741 8.87 18.4553L12 20.0223L15.13 18.4573C16.293 17.8759 17.2711 16.9821 17.9546 15.8761C18.6382 14.77 19.0001 13.4955 19 12.1953V6.83228L12 4.20728ZM12 8.13928C12.2652 8.13928 12.5196 8.24464 12.7071 8.43217C12.8946 8.61971 13 8.87406 13 9.13928V11.1393H15C15.2652 11.1393 15.5196 11.2446 15.7071 11.4322C15.8946 11.6197 16 11.8741 16 12.1393C16 12.4045 15.8946 12.6589 15.7071 12.8464C15.5196 13.0339 15.2652 13.1393 15 13.1393H13V15.1393C13 15.4045 12.8946 15.6589 12.7071 15.8464C12.5196 16.0339 12.2652 16.1393 12 16.1393C11.7348 16.1393 11.4804 16.0339 11.2929 15.8464C11.1054 15.6589 11 15.4045 11 15.1393V13.1393H9C8.73478 13.1393 8.48043 13.0339 8.29289 12.8464C8.10536 12.6589 8 12.4045 8 12.1393C8 11.8741 8.10536 11.6197 8.29289 11.4322C8.48043 11.2446 8.73478 11.1393 9 11.1393H11V9.13928C11 8.87406 11.1054 8.61971 11.2929 8.43217C11.4804 8.24464 11.7348 8.13928 12 8.13928Z" fill="#D62625"/>
</svg>
