<?xml version="1.0" encoding="UTF-8"?>
<svg id="Calque_1" data-name="Calque 1" xmlns="http://www.w3.org/2000/svg" viewBox="0 0 648.61 1176.78">
  <path d="m504.38,351.4c-5.97-93.2,149.69-92.82,144.08,0,5.64,91.35-150.09,91.73-144.08,0ZM.17,280.63c-5.97-93.2,149.69-92.82,144.08,0,5.64,91.35-150.09,91.73-144.08,0Z" style="fill: #f8b020;"/>
  <g>
    <path d="m156.89,1161.22c-40.57.05-81.14.71-121.71,2.4V451.76c40.57-36.09,81.14-50.24,121.71-51.35,0,227.12,0,480.72,0,760.81Z" style="fill: #f8b020;"/>
    <path d="m635.96,1163.62c-40.57,1.69-81.14,2.35-121.71,2.4,0-194.49,0-415.46,0-662.91,40.57-1.11,81.14-15.26,121.71-51.35,0,237.29,0,474.57,0,711.86Z" style="fill: #f8b020;"/>
    <path d="m396.41,299.25c0,60.27,0,119.76,0,178.46,44.3,17.28,88.6,29.26,132.9,24.37v96.67c-44.3,5.14-88.6-7.46-132.9-25.63,0,148.33,0,291.5,0,429.51,0,26.75,5.92,47.88,17.76,62.49,11.84,14.61,32.01,23.23,60.53,24.81,14.02.7,33.33-.71,57.9-6.29v82.37c-32.03,7.28-63.16,10.67-93.42,10.75-54.4.23-95.4-14.61-123.03-50.8-27.63-35.79-41.45-89.07-41.45-153.5v-453.93c-43.2-17.71-86.41-30.13-129.61-25.97,0-30.95,0-61.44,0-91.47,43.2-3.96,86.41,7.85,129.61,24.69v-166.28c40.57,12.11,81.14,27.62,121.71,39.74Z" style="fill: #f8b020;"/>
    <path d="m103.59,173.48c-.87-12.07,1.21-24.74,4.41-36.98,7.38-27.7,22.73-53.23,43.15-72.96,3.06-2.85,6.2-5.59,9.36-8.34,0-.01,8.01-6.19,8.01-6.18,3.91-2.92,8.58-5.9,12.71-8.55,3.28-1.93,7.9-4.6,11.22-6.42,8.47-4.39,17.25-8.39,26.31-11.96,63.87-23.11,137.91-31.31,205.42-8.76,55.96,18.62,106.32,65.88,132.04,122.26,12.06,26.94,19.69,55.12,17.9,85.75-53.91-84.56-133.5-138.63-234.63-146.75-102.77-9.55-180.16,10.47-235.89,98.9h0Z" style="fill: #f8b020;"/>
  </g>
</svg>