<svg width="120" height="60" viewBox="0 0 120 60" fill="none" xmlns="http://www.w3.org/2000/svg">
<path d="M34.822 0C35.6965 1.04985 36.6612 2.02113 37.5982 3.00957C39.2342 4.73735 40.8822 6.45263 42.542 8.15541C43.4514 9.09401 44.5275 10.4998 45.5491 11.223C46.4997 11.4001 48.0959 11.2288 49.1186 11.2243C52.2447 11.2106 55.3778 11.166 58.503 11.2302C58.3838 21.5711 58.4986 31.9219 58.4895 42.2633C58.4869 45.3568 58.3888 48.4484 58.39 51.5424C58.3907 53.4218 58.4723 55.2945 58.5098 57.173C58.5283 58.103 58.4226 59.044 58.4705 59.9714C57.9892 59.9799 57.5094 59.9925 57.0283 59.9664C56.9469 56.2236 56.5028 52.4842 56.2355 48.7525C56.0261 45.8291 55.9028 42.895 55.6895 39.9712C55.398 36.2841 55.0738 32.5998 54.7169 28.9189C53.5465 29.0341 52.3745 29.0071 51.2002 29.0259C51.1831 29.0516 51.1657 29.0771 51.1488 29.1032C50.3483 30.337 49.8201 31.8209 49.1696 33.1518C46.9432 37.7077 44.9031 42.3784 42.7503 46.9754C42.2953 47.9466 41.4257 50.2171 40.7576 50.9089C40.5612 50.8126 40.4597 50.5795 40.3653 50.3844C40.042 49.7179 39.7955 49.0109 39.4961 48.3318C39.0247 47.2633 38.5253 46.2043 38.0441 45.1399L32.9561 34.1411C32.1776 32.4996 31.4087 30.5581 30.4983 29.0149C29.6925 29.013 27.47 28.8511 26.8387 29.1595C26.6125 30.4346 26.6336 31.8055 26.5509 33.0991L26.104 39.2199C25.6193 46.1245 25.0361 53.0333 24.6864 59.9469C23.8551 59.925 22.9108 60.0196 22.0976 59.8996C20.9768 59.876 19.8399 59.952 18.7164 59.9545L10.0068 59.9064C9.77052 59.9207 9.56851 59.925 9.33576 59.8768C9.1882 59.517 9.26347 47.238 9.34536 46.4871L9.15189 46.1631C8.50688 45.3915 7.73182 44.7179 7.04276 43.9861C4.71177 41.5105 2.29759 39.1059 0 36.5996C1.13674 35.6416 2.15689 34.3768 3.19286 33.2889L8.81991 27.4638C9.04887 27.2009 9.21385 26.9527 9.37254 26.6381C9.29098 26.2853 9.30195 26.013 9.34544 25.6521L9.28041 15.6746C9.27081 14.2722 9.1022 12.7452 9.25363 11.3596C9.41901 11.2311 9.65701 11.2681 9.85475 11.2665C14.5413 11.2755 19.2205 11.2392 23.9034 11.4322C24.1158 11.3153 24.3104 11.147 24.5044 10.9984C27.7966 7.19198 31.5807 3.85374 34.822 0Z" fill="#152B44"/>
<path d="M34.8215 0C35.696 1.04985 36.6608 2.02113 37.5977 3.00957C39.2338 4.73735 40.8818 6.45263 42.5415 8.15541C43.4509 9.09401 44.5271 10.4998 45.5487 11.223C44.8035 11.3663 43.9593 11.2945 43.1995 11.2919L37.9593 11.2248C33.8096 11.2054 29.4003 11.4228 25.2882 11.2119C24.9905 11.1967 24.7725 11.133 24.5039 10.9984C27.7962 7.19198 31.5802 3.85374 34.8215 0Z" fill="#576575"/>
<path d="M9.85439 11.2664C14.5409 11.2754 19.2202 11.2392 23.903 11.4322C23.0403 12.2578 22.3349 13.2736 21.4998 14.1399L12.6696 23.3468C12.0098 24.0403 9.69223 26.1367 9.37218 26.638C9.29062 26.2853 9.30159 26.0129 9.34508 25.652L9.28005 15.6746C9.27045 14.2721 9.10184 12.7451 9.25327 11.3595C9.41865 11.2311 9.65665 11.2681 9.85439 11.2664Z" fill="#7B8693"/>
<path d="M0 36.5996C1.13674 35.6417 2.15689 34.3768 3.19286 33.289L8.81991 27.4639C8.93495 27.6573 9.15359 27.9517 9.1903 28.1713C9.27831 28.6971 9.23709 29.3162 9.25556 29.8532C9.33922 32.2836 9.23523 34.7167 9.22829 37.1475C9.22216 39.3053 9.30583 41.4607 9.27589 43.618C9.26452 44.4429 9.31204 45.3547 9.15189 46.1632C8.50688 45.3916 7.73182 44.7179 7.04276 43.9861C4.71177 41.5105 2.29759 39.1059 0 36.5996Z" fill="#576575"/>
<path d="M9.34534 46.4873C9.47249 46.6579 9.63392 46.8391 9.74098 47.0222C11.6876 48.7197 13.4339 50.6084 15.215 52.4912C16.7144 54.0758 18.2341 55.6401 19.7195 57.2399C20.522 58.104 21.2663 59.072 22.0976 59.8998C20.9768 59.8761 19.8399 59.9522 18.7164 59.9547L10.0068 59.9066C9.77051 59.9209 9.56849 59.9251 9.33574 59.877C9.18818 59.5172 9.26345 47.2381 9.34534 46.4873Z" fill="#7B8693"/>
<path d="M9.34534 46.4873C9.47249 46.6579 9.63392 46.8391 9.74098 47.0222C9.69564 47.1934 9.71065 47.2153 9.74163 47.3843C9.8795 48.1369 9.80044 49.028 9.80601 49.795L9.81843 55.6866C9.81843 56.9595 9.67636 58.441 9.9555 59.6734C9.96647 59.7216 9.97599 59.7706 9.98672 59.8196C9.9931 59.8483 10.0001 59.877 10.0068 59.9066C9.77051 59.9209 9.56849 59.9251 9.33574 59.877C9.18818 59.5172 9.26345 47.2381 9.34534 46.4873Z" fill="#576575"/>
<path d="M107.266 27.5537C108.497 27.6551 110.339 28.6486 111.473 29.1956C111.287 31.0907 111.382 33.1105 111.361 35.0198C112.746 36.2517 115.592 36.652 117.268 35.889C117.895 35.6038 118.86 34.5387 119.478 34.561C119.624 35.1318 119.489 39.1279 119.489 40.1085L119.49 59.5847C118.295 59.5458 117.061 59.545 115.87 59.6489C114.856 59.7376 113.861 59.9462 112.839 59.9487C111.454 59.9529 109.926 59.6075 108.929 58.5305C108.183 57.7272 107.759 56.6097 107.541 55.5294C107.153 53.6069 107.309 51.469 107.307 49.5069L107.29 41.2895C107.284 39.8102 107.253 38.3075 107.344 36.8317C106.47 36.1848 105.19 35.8759 104.145 35.6861C103.869 35.6361 103.572 35.5817 103.336 35.7597C103.137 37.3028 103.289 39.6167 103.291 41.2218C103.298 44.7699 103.239 48.3193 103.266 51.8669L103.294 56.3817C103.298 57.3691 103.335 58.381 103.235 59.3634L103.222 59.4782C101.904 59.3972 100.535 59.5154 99.2138 59.5348C99.1743 55.3444 99.163 51.1531 99.1808 46.9626C99.1775 42.7171 99.1332 38.4669 99.1856 34.2219C100.038 33.6348 100.914 32.998 101.895 32.6734C103.719 32.0695 105.57 32.6136 107.206 33.5076C107.353 31.5189 107.166 29.5357 107.266 27.5537Z" fill="#152B44"/>
<path d="M111.328 38.7773C112.678 39.2124 114.086 39.4742 115.472 39.7517C115.241 41.3307 115.401 43.8471 115.402 45.5256L115.401 56.9807C114.328 57.0406 113.02 56.919 112.148 56.1934C111.747 55.8589 111.556 55.5067 111.46 54.9855C111.226 53.7025 111.4 52.2108 111.406 50.9007L111.411 43.3021C111.409 41.8514 111.481 40.3541 111.342 38.9118L111.328 38.7773Z" fill="#F9B122"/>
<path d="M30.0129 37.8502C30.0048 37.4614 29.9305 36.9169 30.0636 36.5554C30.1217 36.3975 30.0795 36.4517 30.2304 36.3806C30.5709 36.6514 30.6937 37.1741 30.8232 37.5826C31.6939 39.2955 32.4353 41.0643 33.2234 42.818L36.2073 49.3554C36.8975 50.8742 37.7875 53.0382 38.6352 54.4184C38.7703 54.638 38.865 54.7791 39.1141 54.8492C39.8025 55.0435 41.9765 54.8906 42.8468 54.899C43.7284 53.3584 44.3552 51.6698 45.0986 50.0531L49.6504 40.2751C50.2641 38.9751 50.8072 37.2843 51.7409 36.2061C51.6547 38.3422 51.8723 40.4261 52.0298 42.5519C52.1706 44.452 52.2482 46.3624 52.3747 48.265L52.8258 55.6373C52.9091 57.0741 52.9583 58.5201 53.1025 59.9519C44.954 59.9721 36.7929 59.8505 28.6465 59.9696C28.893 55.4354 29.2703 50.9079 29.5036 46.3758L29.85 40.5936C29.8969 39.7371 29.8231 38.6705 30.0129 37.8502Z" fill="#152B44"/>
<path d="M30.0123 37.8507C30.0042 37.4618 29.9299 36.9172 30.063 36.5557C30.1211 36.3978 30.079 36.452 30.2298 36.3809C30.5703 36.6517 30.6931 37.1744 30.8226 37.583C30.7789 37.5691 30.7316 37.5642 30.6914 37.5413C30.6542 37.52 30.6313 37.4774 30.5954 37.4535C30.511 37.3973 30.348 37.3707 30.2489 37.3415C30.0577 37.4887 30.0704 37.615 30.0123 37.8507Z" fill="#152B44"/>
<path d="M67.0119 36.2867C67.4472 36.248 67.8931 36.2514 68.3295 36.2618C70.5877 36.3152 72.8757 37.1353 74.444 38.8821C75.3775 39.9233 76.0213 41.2111 76.3077 42.607C76.7554 44.7008 76.5465 47.5915 76.5529 49.7801C76.5618 53.038 76.6304 56.3187 76.5263 59.5741C75.2677 59.5952 74.0092 59.602 72.7506 59.5927C72.7337 58.764 72.8482 57.5443 72.561 56.7765C71.9737 57.1313 71.4485 57.8712 70.8975 58.3223C69.1856 59.727 66.3987 60.2042 64.2891 59.9221C62.7183 59.7118 61.3848 58.982 60.4158 57.6719C59.745 56.5358 59.2232 55.3178 59.1793 53.9671C59.125 52.3479 59.6854 50.7726 60.7379 49.5858C63.4976 46.5086 68.7927 47.138 72.4836 47.0197C72.5715 45.5212 72.5255 43.7192 71.8648 42.3504C71.3227 41.2266 70.4368 40.4421 69.2942 40.0542C66.7179 39.1794 63.9468 40.2158 61.6363 41.4298C61.4581 40.3976 61.1796 39.3308 60.8432 38.3435C62.1434 36.9313 65.2006 36.4011 67.0119 36.2867Z" fill="#152B44"/>
<path d="M72.2257 49.7116C72.2596 49.709 72.362 49.7006 72.3919 49.7082C72.5089 49.7369 72.5137 49.7369 72.5452 49.8357C72.6985 50.3189 72.5952 52.809 72.5137 53.4079C72.4871 53.6047 72.4137 53.8125 72.3241 53.9865C71.6836 55.2323 69.6586 56.1868 68.4207 56.5762C67.0003 57.0222 65.6119 56.9605 64.2949 56.2206C64.2698 56.1995 64.2444 56.1784 64.2197 56.1564C63.6023 55.6158 63.1901 54.9097 63.1317 54.0566C63.0725 53.1925 63.2551 52.3284 63.8176 51.6704C65.367 49.8585 69.9451 49.8678 72.2257 49.7116Z" fill="#F9B122"/>
<path d="M79.2427 26.1553C80.3818 26.1117 81.5218 26.1202 82.6593 26.1809C82.7021 33.2907 82.5956 40.3915 82.5698 47.5002C83.6565 46.6804 84.6553 45.1366 85.5169 44.0401C86.7892 42.442 88.0719 40.8529 89.3644 39.2728C90.0283 38.4507 90.6399 37.5609 91.3514 36.7855C92.8867 36.785 94.451 36.8961 95.9815 36.7764C95.3683 37.9228 93.7233 39.5166 92.8407 40.5858C90.8214 43.0318 88.8698 45.5295 86.869 47.9901C87.9186 49.328 89.0642 50.5942 90.1792 51.873C91.132 52.9669 92.0606 54.0869 93.0327 55.1614C94.2098 56.6505 95.7564 57.8947 96.6785 59.5883C95.111 59.4439 93.5111 59.612 91.9371 59.5647C91.295 59.0097 90.7827 58.2039 90.2429 57.54C89.2837 56.3583 83.2474 48.6776 82.6698 48.431L82.5867 48.4876C82.6633 50.1491 82.6157 51.8232 82.6287 53.4872C82.644 55.4975 82.7061 57.5138 82.6601 59.5224C81.3402 59.5224 80.018 59.5748 78.6981 59.5908C78.6303 58.111 78.6642 56.6176 78.6626 55.1352L78.6545 47.6395L78.4932 26.1695L79.2427 26.1553Z" fill="#152B44"/>
<path d="M116.639 28.3679C117.255 28.3234 117.852 28.2735 118.44 28.5215C119.062 28.7838 119.605 29.3171 119.848 29.9775C120.062 30.5605 120.058 31.2394 119.786 31.8006C119.433 32.5253 118.838 32.8494 118.131 33.0716C117.651 33.2285 117.179 33.2391 116.691 33.0962C116.065 32.915 115.538 32.4713 115.236 31.8699C114.937 31.2627 114.892 30.4984 115.119 29.8577C115.391 29.0867 115.971 28.7108 116.639 28.3679Z" fill="#152B44"/>
<path d="M103.992 19.2708C106.023 17.799 108.556 17.3087 110.979 17.7809C112.918 18.1591 114.769 19.2401 115.896 20.9685C116.081 21.2526 116.274 21.5509 116.426 21.8562C116.173 22.0232 115.978 22.1433 115.815 22.4117C114.786 21.3693 113.742 20.4908 112.397 19.9447C109.786 18.8839 107.032 19.0049 104.489 20.1665C104.223 19.9234 104.124 19.6015 103.992 19.2708Z" fill="#152B44"/>
<path d="M100.093 25.8359C100.737 25.8589 101.436 25.9857 101.973 26.3765C102.471 26.7355 102.801 27.2965 102.885 27.9231C102.977 28.5673 102.82 29.2504 102.43 29.7617C102.044 30.2688 101.512 30.54 100.906 30.6138C100.218 30.6469 99.5913 30.6916 98.987 30.2701C98.4764 29.9143 98.1528 29.3391 98.0367 28.7157C97.9181 28.0789 97.9915 27.3675 98.357 26.8287C98.7829 26.202 99.4001 25.9625 100.093 25.8359Z" fill="#152B44"/>
<path d="M103.992 19.2705C104.125 19.6013 104.223 19.9231 104.489 20.1663C104.014 20.4318 103.593 20.7258 103.183 21.0916C102.789 21.4438 101.766 22.8164 101.369 22.882L101.339 22.7378C101.658 21.5918 103.072 19.9435 103.992 19.2705Z" fill="#152B44"/>
<path d="M115.815 22.411C115.978 22.1426 116.173 22.0225 116.426 21.8555C116.758 22.5091 117.423 23.6965 117.389 24.4549C116.905 24.347 116.174 22.8503 115.815 22.411Z" fill="#152B44"/>
</svg>
