<svg width="120" height="60" viewBox="0 0 120 60" fill="none" xmlns="http://www.w3.org/2000/svg">
<path d="M34.822 0C35.6965 1.04985 36.6612 2.02113 37.5982 3.00957C39.2342 4.73735 40.8822 6.45263 42.542 8.15541C43.4514 9.09401 44.5275 10.4998 45.5491 11.223C46.4997 11.4001 48.0959 11.2288 49.1186 11.2243C52.2447 11.2106 55.3778 11.166 58.503 11.2302C58.3838 21.5711 58.4986 31.9219 58.4895 42.2633C58.4869 45.3568 58.3888 48.4484 58.39 51.5424C58.3907 53.4218 58.4723 55.2945 58.5098 57.173C58.5283 58.103 58.4226 59.044 58.4705 59.9714C57.9892 59.9799 57.5094 59.9925 57.0283 59.9664C56.9469 56.2236 56.5028 52.4842 56.2355 48.7525C56.0261 45.8291 55.9028 42.895 55.6895 39.9712C55.398 36.2841 55.0738 32.5998 54.7169 28.9189C53.5465 29.0341 52.3745 29.0071 51.2002 29.0259C51.1831 29.0516 51.1657 29.0771 51.1488 29.1032C50.3483 30.337 49.8201 31.8209 49.1696 33.1518C46.9432 37.7077 44.9031 42.3784 42.7503 46.9754C42.2953 47.9466 41.4257 50.2171 40.7576 50.9089C40.5612 50.8126 40.4597 50.5795 40.3653 50.3844C40.042 49.7179 39.7955 49.0109 39.4961 48.3318C39.0247 47.2633 38.5253 46.2043 38.0441 45.1399L32.9561 34.1411C32.1776 32.4996 31.4087 30.5581 30.4983 29.0149C29.6925 29.013 27.47 28.8511 26.8387 29.1595C26.6125 30.4346 26.6336 31.8055 26.5509 33.0991L26.104 39.2199C25.6193 46.1245 25.0361 53.0333 24.6864 59.9469C23.8551 59.925 22.9108 60.0196 22.0976 59.8996C20.9768 59.876 19.8399 59.952 18.7164 59.9545L10.0068 59.9064C9.77052 59.9207 9.56851 59.925 9.33576 59.8768C9.1882 59.517 9.26347 47.238 9.34536 46.4871L9.15189 46.1631C8.50688 45.3915 7.73182 44.7179 7.04276 43.9861C4.71177 41.5105 2.29759 39.1059 0 36.5996C1.13674 35.6416 2.15689 34.3768 3.19286 33.2889L8.81991 27.4638C9.04887 27.2009 9.21385 26.9527 9.37254 26.6381C9.29098 26.2853 9.30195 26.013 9.34544 25.6521L9.28041 15.6746C9.27081 14.2722 9.1022 12.7452 9.25363 11.3596C9.41901 11.2311 9.65701 11.2681 9.85475 11.2665C14.5413 11.2755 19.2205 11.2392 23.9034 11.4322C24.1158 11.3153 24.3104 11.147 24.5044 10.9984C27.7966 7.19198 31.5807 3.85374 34.822 0Z" fill="#F9B122"/>
<path d="M34.8215 0C35.696 1.04985 36.6608 2.02113 37.5977 3.00957C39.2338 4.73735 40.8818 6.45263 42.5415 8.15541C43.4509 9.09401 44.5271 10.4998 45.5487 11.223C44.8035 11.3663 43.9593 11.2945 43.1995 11.2919L37.9593 11.2248C33.8096 11.2054 29.4003 11.4228 25.2882 11.2119C24.9905 11.1967 24.7725 11.133 24.5039 10.9984C27.7962 7.19198 31.5802 3.85374 34.8215 0Z" fill="#F6BD39"/>
<path d="M9.85439 11.2664C14.5409 11.2754 19.2202 11.2392 23.903 11.4322C23.0403 12.2578 22.3349 13.2736 21.4998 14.1399L12.6696 23.3468C12.0098 24.0403 9.69223 26.1367 9.37218 26.638C9.29062 26.2853 9.30159 26.0129 9.34508 25.652L9.28005 15.6746C9.27045 14.2721 9.10184 12.7451 9.25327 11.3595C9.41865 11.2311 9.65665 11.2681 9.85439 11.2664Z" fill="#F6BD39"/>
<path d="M0 36.5996C1.13674 35.6417 2.15689 34.3768 3.19286 33.289L8.81991 27.4639C8.93495 27.6573 9.15359 27.9517 9.1903 28.1713C9.27831 28.6971 9.23709 29.3162 9.25556 29.8532C9.33922 32.2836 9.23523 34.7167 9.22829 37.1475C9.22216 39.3053 9.30583 41.4607 9.27589 43.618C9.26452 44.4429 9.31204 45.3547 9.15189 46.1632C8.50688 45.3916 7.73182 44.7179 7.04276 43.9861C4.71177 41.5105 2.29759 39.1059 0 36.5996Z" fill="#F6BD39"/>
<path d="M9.34534 46.4873C9.47249 46.6579 9.63392 46.8391 9.74098 47.0222C11.6876 48.7197 13.4339 50.6084 15.215 52.4912C16.7144 54.0758 18.2341 55.6401 19.7195 57.2399C20.522 58.104 21.2663 59.072 22.0976 59.8998C20.9768 59.8761 19.8399 59.9522 18.7164 59.9547L10.0068 59.9066C9.77051 59.9209 9.56849 59.9251 9.33574 59.877C9.18818 59.5172 9.26345 47.2381 9.34534 46.4873Z" fill="#F6BD39"/>
<path d="M9.34534 46.4873C9.47249 46.6579 9.63392 46.8391 9.74098 47.0222C9.69564 47.1934 9.71065 47.2153 9.74163 47.3843C9.8795 48.1369 9.80044 49.028 9.80601 49.795L9.81843 55.6866C9.81843 56.9595 9.67636 58.441 9.9555 59.6734C9.96647 59.7216 9.97599 59.7706 9.98672 59.8196C9.9931 59.8483 10.0001 59.877 10.0068 59.9066C9.77051 59.9209 9.56849 59.9251 9.33574 59.877C9.18818 59.5172 9.26345 47.2381 9.34534 46.4873Z" fill="#F6BD39"/>
<path d="M107.266 27.5537C108.497 27.6551 110.339 28.6486 111.473 29.1956C111.287 31.0907 111.382 33.1105 111.361 35.0198C112.746 36.2517 115.592 36.652 117.268 35.889C117.895 35.6038 118.86 34.5387 119.478 34.561C119.624 35.1318 119.489 39.1279 119.489 40.1085L119.49 59.5847C118.295 59.5458 117.061 59.545 115.87 59.6489C114.856 59.7376 113.861 59.9462 112.839 59.9487C111.454 59.9529 109.926 59.6075 108.929 58.5305C108.183 57.7272 107.759 56.6097 107.541 55.5294C107.153 53.6069 107.309 51.469 107.307 49.5069L107.29 41.2895C107.284 39.8102 107.253 38.3075 107.344 36.8317C106.47 36.1848 105.19 35.8759 104.145 35.6861C103.869 35.6361 103.572 35.5817 103.336 35.7597C103.137 37.3028 103.289 39.6167 103.291 41.2218C103.298 44.7699 103.239 48.3193 103.266 51.8669L103.294 56.3817C103.298 57.3691 103.335 58.381 103.235 59.3634L103.222 59.4782C101.904 59.3972 100.535 59.5154 99.2138 59.5348C99.1743 55.3444 99.163 51.1531 99.1808 46.9626C99.1775 42.7171 99.1332 38.4669 99.1856 34.2219C100.038 33.6348 100.914 32.998 101.895 32.6734C103.719 32.0695 105.57 32.6136 107.206 33.5076C107.353 31.5189 107.166 29.5357 107.266 27.5537Z" fill="#F9B122"/>
<path d="M111.328 38.7778C112.678 39.2128 114.086 39.4747 115.472 39.7522C115.241 41.3312 115.401 43.8476 115.402 45.5261L115.401 56.9811C114.328 57.0411 113.02 56.9195 112.148 56.1939C111.747 55.8594 111.556 55.5072 111.46 54.986C111.226 53.703 111.4 52.2113 111.406 50.9012L111.411 43.3026C111.409 41.8519 111.481 40.3546 111.342 38.9123L111.328 38.7778Z" fill="white"/>
<path d="M30.0129 37.8502C30.0048 37.4614 29.9305 36.9169 30.0636 36.5554C30.1217 36.3975 30.0795 36.4517 30.2304 36.3806C30.5709 36.6514 30.6937 37.1741 30.8232 37.5826C31.6939 39.2955 32.4353 41.0643 33.2234 42.818L36.2073 49.3554C36.8975 50.8742 37.7875 53.0382 38.6352 54.4184C38.7703 54.638 38.865 54.7791 39.1141 54.8492C39.8025 55.0435 41.9765 54.8906 42.8468 54.899C43.7284 53.3584 44.3552 51.6698 45.0986 50.0531L49.6504 40.2751C50.2641 38.9751 50.8072 37.2843 51.7409 36.2061C51.6547 38.3422 51.8723 40.4261 52.0298 42.5519C52.1706 44.452 52.2482 46.3624 52.3747 48.265L52.8258 55.6373C52.9091 57.0741 52.9583 58.5201 53.1025 59.9519C44.954 59.9721 36.7929 59.8505 28.6465 59.9696C28.893 55.4354 29.2703 50.9079 29.5036 46.3758L29.85 40.5936C29.8969 39.7371 29.8231 38.6705 30.0129 37.8502Z" fill="#F9B122"/>
<path d="M30.0123 37.8507C30.0042 37.4618 29.9299 36.9172 30.063 36.5557C30.1211 36.3978 30.079 36.452 30.2298 36.3809C30.5703 36.6517 30.6931 37.1744 30.8226 37.583C30.7789 37.5691 30.7316 37.5642 30.6914 37.5413C30.6542 37.52 30.6313 37.4774 30.5954 37.4535C30.511 37.3973 30.348 37.3707 30.2489 37.3415C30.0577 37.4887 30.0704 37.615 30.0123 37.8507Z" fill="#F9B122"/>
<path d="M67.0119 36.2872C67.4472 36.2485 67.8931 36.2519 68.3295 36.2623C70.5877 36.3157 72.8757 37.1358 74.444 38.8826C75.3775 39.9237 76.0213 41.2116 76.3077 42.6075C76.7554 44.7013 76.5465 47.592 76.5529 49.7806C76.5618 53.0385 76.6304 56.3192 76.5263 59.5746C75.2677 59.5957 74.0092 59.6025 72.7506 59.5932C72.7337 58.7645 72.8482 57.5448 72.561 56.777C71.9737 57.1318 71.4485 57.8717 70.8975 58.3228C69.1856 59.7275 66.3987 60.2047 64.2891 59.9226C62.7183 59.7123 61.3848 58.9825 60.4158 57.6724C59.745 56.5363 59.2232 55.3183 59.1793 53.9676C59.125 52.3484 59.6854 50.7731 60.7379 49.5863C63.4976 46.5091 68.7927 47.1384 72.4836 47.0202C72.5715 45.5217 72.5255 43.7197 71.8648 42.3509C71.3227 41.2271 70.4368 40.4426 69.2942 40.0547C66.7179 39.1799 63.9468 40.2163 61.6363 41.4303C61.4581 40.3981 61.1796 39.3313 60.8432 38.344C62.1434 36.9318 65.2006 36.4015 67.0119 36.2872Z" fill="#F9B122"/>
<path d="M72.2257 49.712C72.2596 49.7095 72.362 49.7011 72.3919 49.7087C72.5089 49.7374 72.5137 49.7374 72.5452 49.8362C72.6985 50.3194 72.5952 52.8095 72.5137 53.4083C72.4871 53.6052 72.4137 53.8129 72.3241 53.9869C71.6836 55.2328 69.6586 56.1873 68.4207 56.5767C67.0003 57.0227 65.6119 56.961 64.2949 56.2211C64.2698 56.2 64.2444 56.1789 64.2197 56.1569C63.6023 55.6163 63.1901 54.9102 63.1317 54.057C63.0725 53.1929 63.2551 52.3288 63.8176 51.6708C65.367 49.859 69.9451 49.8683 72.2257 49.712Z" fill="white"/>
<path d="M79.2427 26.1548C80.3818 26.1112 81.5218 26.1197 82.6593 26.1805C82.7021 33.2902 82.5956 40.391 82.5698 47.4997C83.6565 46.6799 84.6553 45.1361 85.5169 44.0396C86.7892 42.4415 88.0719 40.8524 89.3644 39.2723C90.0283 38.4502 90.6399 37.5604 91.3514 36.785C92.8867 36.7845 94.451 36.8956 95.9815 36.776C95.3683 37.9223 93.7233 39.5161 92.8407 40.5853C90.8214 43.0314 88.8698 45.529 86.869 47.9896C87.9186 49.3276 89.0642 50.5937 90.1792 51.8726C91.132 52.9664 92.0606 54.0865 93.0327 55.1609C94.2098 56.65 95.7564 57.8942 96.6785 59.5878C95.111 59.4434 93.5111 59.6115 91.9371 59.5642C91.295 59.0092 90.7827 58.2034 90.2429 57.5395C89.2837 56.3578 83.2474 48.6772 82.6698 48.4305L82.5867 48.4871C82.6633 50.1486 82.6157 51.8227 82.6287 53.4867C82.644 55.4971 82.7061 57.5133 82.6601 59.5219C81.3402 59.5219 80.018 59.5743 78.6981 59.5903C78.6303 58.1105 78.6642 56.6171 78.6626 55.1347L78.6545 47.6391L78.4932 26.169L79.2427 26.1548Z" fill="#F9B122"/>
<path d="M116.639 28.3677C117.255 28.3231 117.852 28.2732 118.44 28.5212C119.062 28.7836 119.605 29.3168 119.848 29.9773C120.062 30.5603 120.058 31.2391 119.786 31.8003C119.433 32.5251 118.838 32.8492 118.131 33.0714C117.651 33.2282 117.179 33.2389 116.691 33.096C116.065 32.9148 115.538 32.4711 115.236 31.8697C114.937 31.2624 114.892 30.4982 115.119 29.8574C115.391 29.0865 115.971 28.7106 116.639 28.3677Z" fill="#F9B122"/>
<path d="M103.992 19.2708C106.023 17.799 108.556 17.3087 110.979 17.7809C112.918 18.1591 114.769 19.2401 115.896 20.9685C116.081 21.2526 116.274 21.5509 116.426 21.8562C116.173 22.0232 115.978 22.1433 115.815 22.4117C114.786 21.3693 113.742 20.4908 112.397 19.9447C109.786 18.8839 107.032 19.0049 104.489 20.1665C104.223 19.9234 104.124 19.6015 103.992 19.2708Z" fill="#F9B122"/>
<path d="M100.093 25.8364C100.737 25.8594 101.436 25.9862 101.973 26.377C102.471 26.736 102.801 27.297 102.885 27.9236C102.977 28.5678 102.82 29.2509 102.43 29.7622C102.044 30.2693 101.512 30.5405 100.906 30.6142C100.218 30.6474 99.5913 30.6921 98.987 30.2705C98.4764 29.9148 98.1528 29.3395 98.0367 28.7162C97.9181 28.0794 97.9915 27.368 98.357 26.8292C98.7829 26.2025 99.4001 25.963 100.093 25.8364Z" fill="#F9B122"/>
<path d="M103.992 19.2705C104.125 19.6013 104.223 19.9231 104.489 20.1663C104.014 20.4318 103.593 20.7258 103.183 21.0916C102.789 21.4438 101.766 22.8164 101.369 22.882L101.339 22.7378C101.658 21.5918 103.072 19.9435 103.992 19.2705Z" fill="#F9B122"/>
<path d="M115.815 22.4115C115.978 22.1431 116.173 22.023 116.426 21.856C116.758 22.5095 117.423 23.697 117.389 24.4554C116.905 24.3475 116.174 22.8508 115.815 22.4115Z" fill="#F9B122"/>
</svg>
