<svg width="24" height="25" viewBox="0 0 24 25" fill="none" xmlns="http://www.w3.org/2000/svg">
<path d="M7 7.49902C6.00544 7.49902 5.05161 7.89411 4.34835 8.59737C3.64509 9.30063 3.25 10.2545 3.25 11.249V18.749H10.75V11.249C10.75 10.2545 10.3549 9.30063 9.65165 8.59737C8.94839 7.89411 7.99456 7.49902 7 7.49902ZM7 6.24902H17C18.3261 6.24902 19.5979 6.77581 20.5355 7.71349C21.4732 8.65117 22 9.92294 22 11.249V18.749C22 19.0805 21.8683 19.3985 21.6339 19.6329C21.3995 19.8673 21.0815 19.999 20.75 19.999H3.25C2.91848 19.999 2.60054 19.8673 2.36612 19.6329C2.1317 19.3985 2 19.0805 2 18.749V11.249C2 9.92294 2.52678 8.65117 3.46447 7.71349C4.40215 6.77581 5.67392 6.24902 7 6.24902ZM10.3075 7.49902C10.8395 7.96826 11.2655 8.54532 11.5573 9.19187C11.8491 9.83843 12 10.5397 12 11.249V18.749H20.75V11.249C20.75 10.2545 20.3549 9.30063 19.6517 8.59737C18.9484 7.89411 17.9946 7.49902 17 7.49902H10.3075Z" fill="#152B44"/>
<path d="M16.7413 13.124H13.25V11.874H19.5C19.6658 11.874 19.8247 11.9399 19.9419 12.0571C20.0592 12.1743 20.125 12.3333 20.125 12.499V13.749C20.125 13.9148 20.0592 14.0738 19.9419 14.191C19.8247 14.3082 19.6658 14.374 19.5 14.374H18.25C18.1679 14.3742 18.0865 14.3581 18.0106 14.3268C17.9347 14.2955 17.8656 14.2495 17.8075 14.1915L16.7413 13.124ZM8.25 11.249C8.25 11.939 7.69 11.249 7 11.249C6.31 11.249 5.75 11.939 5.75 11.249C5.75 10.9175 5.8817 10.5996 6.11612 10.3651C6.35054 10.1307 6.66848 9.99902 7 9.99902C7.33152 9.99902 7.64946 10.1307 7.88388 10.3651C8.1183 10.5996 8.25 10.9175 8.25 11.249Z" fill="#152B44"/>
</svg>
