<svg width="24" height="25" viewBox="0 0 24 25" fill="none" xmlns="http://www.w3.org/2000/svg">
<path d="M16 4.16113C16.3315 4.16113 16.6495 4.29283 16.8839 4.52725C17.1183 4.76167 17.25 5.07961 17.25 5.41113V20.4111C17.25 20.7427 17.1183 21.0606 16.8839 21.295C16.6495 21.5294 16.3315 21.6611 16 21.6611H8.5C8.16848 21.6611 7.85054 21.5294 7.61612 21.295C7.3817 21.0606 7.25 20.7427 7.25 20.4111V5.41113C7.25 5.07961 7.3817 4.76167 7.61612 4.52725C7.85054 4.29283 8.16848 4.16113 8.5 4.16113H16ZM8.5 2.91113C7.83696 2.91113 7.20107 3.17452 6.73223 3.64337C6.26339 4.11221 6 4.74809 6 5.41113V20.4111C6 21.0742 6.26339 21.7101 6.73223 22.1789C7.20107 22.6477 7.83696 22.9111 8.5 22.9111H16C16.663 22.9111 17.2989 22.6477 17.7678 22.1789C18.2366 21.7101 18.5 21.0742 18.5 20.4111V5.41113C18.5 4.74809 18.2366 4.11221 17.7678 3.64337C17.2989 3.17452 16.663 2.91113 16 2.91113H8.5Z" fill="#152B44"/>
<path d="M12.25 20.4111C12.5815 20.4111 12.8995 20.2794 13.1339 20.045C13.3683 19.8106 13.5 19.4927 13.5 19.1611C13.5 18.8296 13.3683 18.5117 13.1339 18.2772C12.8995 18.0428 12.5815 17.9111 12.25 17.9111C11.9185 17.9111 11.6005 18.0428 11.3661 18.2772C11.1317 18.5117 11 18.8296 11 19.1611C11 19.4927 11.1317 19.8106 11.3661 20.045C11.6005 20.2794 11.9185 20.4111 12.25 20.4111Z" fill="#152B44"/>
</svg>
