<svg width="24" height="25" viewBox="0 0 24 25" fill="none" xmlns="http://www.w3.org/2000/svg">
<path d="M16.3219 15.2888C16.3219 16.0772 16.5459 16.3917 17.1319 16.3917C18.4378 16.3917 19.2694 14.7256 19.2694 11.9546C19.2694 7.7193 16.1869 5.69176 12.3384 5.69176C8.37938 5.69176 4.77844 8.35009 4.77844 13.3739C4.77844 18.1724 7.92844 20.7856 12.7659 20.7856C14.4084 20.7856 15.5109 20.6054 17.1975 20.0422L17.5594 21.5507C15.8944 22.0923 14.115 22.249 12.7434 22.249C6.39844 22.249 3 18.7572 3 13.3729C3 7.94364 6.93844 4.24902 12.3609 4.24902C18.0084 4.24902 21 7.62825 21 11.7734C21 15.2878 19.8984 17.9687 16.4334 17.9687C14.8575 17.9687 13.8234 17.3379 13.6884 15.9402C13.2834 17.4946 12.2034 17.9687 10.74 17.9687C8.7825 17.9687 7.14 16.4583 7.14 13.418C7.14 10.3542 8.58094 8.46179 11.1684 8.46179C12.5409 8.46179 13.3959 9.00246 13.7766 9.85853L14.43 8.66454H16.32V15.2888H16.3219ZM13.5553 12.315C13.5553 11.0769 12.6319 10.5578 11.8669 10.5578C11.0344 10.5578 10.1128 11.2328 10.1128 13.2162C10.1128 14.7931 10.8103 15.6717 11.8669 15.6717C12.6094 15.6717 13.5553 15.1986 13.5553 13.892V12.315Z" fill="#152B44"/>
</svg>
