<svg width="24" height="25" viewBox="0 0 24 25" fill="none" xmlns="http://www.w3.org/2000/svg">
<path fill-rule="evenodd" clip-rule="evenodd" d="M18.3775 6.86468C17.5454 6.03221 16.5569 5.37254 15.4689 4.92364C14.3808 4.47474 13.2148 4.24549 12.0378 4.24906C7.09821 4.24906 3.07714 8.25004 3.07513 13.1687C3.07293 14.7349 3.48578 16.2737 4.27165 17.6285L3 22.249L7.75111 21.0087C9.06622 21.7212 10.5384 22.0941 12.0341 22.0935H12.0378C16.9769 22.0935 20.9976 18.0922 21 13.1739C21.003 12.0009 20.7727 10.8391 20.3224 9.7559C19.8722 8.67275 19.2111 7.68995 18.3775 6.86468ZM12.0378 20.588H12.0345C10.7012 20.5884 9.39204 20.2316 8.2433 19.5547L7.97129 19.3939L5.15196 20.13L5.9045 17.3943L5.72732 17.113C4.98176 15.9326 4.58675 14.5648 4.58826 13.1687C4.58826 9.08133 7.93151 5.75576 12.0406 5.75576C14.0117 5.75224 15.9036 6.53182 17.3 7.92303C18.6964 9.31425 19.483 11.2032 19.4868 13.1743C19.4852 17.2621 16.1436 20.588 12.0378 20.588ZM16.1235 15.0358C15.8997 14.9241 14.7976 14.3849 14.5935 14.3106C14.3894 14.2362 14.2387 14.1989 14.0897 14.4223C13.9406 14.6456 13.5111 15.1455 13.3805 15.2961C13.2499 15.4468 13.1194 15.4633 12.8956 15.3516C12.6718 15.2399 11.9498 15.0048 11.0944 14.2455C10.4286 13.6544 9.97941 12.9248 9.84883 12.7018C9.71825 12.4788 9.83477 12.3579 9.94686 12.247C10.0477 12.1469 10.1707 11.9866 10.2828 11.8565C10.3949 11.7263 10.4322 11.6331 10.5066 11.4844C10.5809 11.3357 10.5439 11.2056 10.4881 11.0943C10.4322 10.983 9.98423 9.8857 9.7978 9.43932C9.61579 9.00459 9.43137 9.06365 9.29396 9.05682C9.16338 9.05039 9.01271 9.04879 8.86446 9.04879C8.75112 9.05174 8.6396 9.07802 8.53687 9.126C8.43415 9.17397 8.34242 9.24261 8.2674 9.32762C8.06209 9.55102 7.48352 10.091 7.48352 11.1871C7.48352 12.2832 8.28709 13.3439 8.39798 13.4925C8.50888 13.6412 9.977 15.8924 12.2234 16.8579C12.6405 17.0365 13.0667 17.1932 13.5003 17.3272C14.0366 17.4967 14.5248 17.473 14.9105 17.4156C15.3408 17.3517 16.2364 16.8764 16.4224 16.3556C16.6085 15.8349 16.6089 15.389 16.553 15.2961C16.4972 15.2033 16.3477 15.1471 16.1235 15.0358Z" fill="#152B44"/>
</svg>
