<svg width="24" height="25" viewBox="0 0 24 25" fill="none" xmlns="http://www.w3.org/2000/svg">
<path d="M4.07715 11.3457V21.5578C4.07715 21.7414 4.15009 21.9175 4.27993 22.0473C4.40977 22.1772 4.58587 22.2501 4.76949 22.2501H8.92354V16.3652C8.92354 16.0898 9.03296 15.8256 9.22772 15.6308C9.42248 15.4361 9.68663 15.3267 9.96206 15.3267H13.4238C13.6992 15.3267 13.9634 15.4361 14.1581 15.6308C14.3529 15.8256 14.4623 16.0898 14.4623 16.3652V22.2501H18.6163C18.8 22.2501 18.9761 22.1772 19.1059 22.0473C19.2357 21.9175 19.3087 21.7414 19.3087 21.5578V11.3457" stroke="#152B44" stroke-width="0.923123" stroke-linecap="round" stroke-linejoin="round"/>
<path d="M21.3856 13.2497L12.164 4.42233C11.9477 4.19386 11.4418 4.19126 11.2216 4.42233L2 13.2497M17.9239 9.9178V4.94159H15.8468V7.92731" stroke="#152B44" stroke-width="0.923123" stroke-linecap="round" stroke-linejoin="round"/>
</svg>
