<svg width="24" height="25" viewBox="0 0 24 25" fill="none" xmlns="http://www.w3.org/2000/svg">
<path d="M12.5 3.91113C8.91146 3.91113 6 6.56756 6 9.83931C6 13.6039 10.3333 19.5697 11.9245 21.6303C11.9905 21.7173 12.0771 21.7881 12.1771 21.8369C12.2771 21.8857 12.3878 21.9111 12.5 21.9111C12.6122 21.9111 12.7229 21.8857 12.8229 21.8369C12.9229 21.7881 13.0095 21.7173 13.0755 21.6303C14.6667 19.5706 19 13.607 19 9.83931C19 6.56756 16.0885 3.91113 12.5 3.91113Z" stroke="#152B44" stroke-width="1.5" stroke-linecap="round" stroke-linejoin="round"/>
<path d="M12.5007 12.2195C13.6973 12.2195 14.6673 11.2896 14.6673 10.1425C14.6673 8.99535 13.6973 8.06543 12.5007 8.06543C11.304 8.06543 10.334 8.99535 10.334 10.1425C10.334 11.2896 11.304 12.2195 12.5007 12.2195Z" stroke="#152B44" stroke-width="1.5" stroke-linecap="round" stroke-linejoin="round"/>
</svg>
