<svg width="24" height="25" viewBox="0 0 24 25" fill="none" xmlns="http://www.w3.org/2000/svg">
<path d="M21.0284 5.01987C20.7514 4.85229 20.4328 4.75027 20.1016 4.72302C19.7703 4.69577 19.4368 4.74416 19.1313 4.8638L15.0514 6.45562L9.62291 4.37481C9.4098 4.29182 9.18042 4.24902 8.94863 4.24902C8.71685 4.24902 8.48747 4.29182 8.27436 4.37481L3.29161 6.28916C2.90318 6.44296 2.57335 6.69785 2.34358 7.0218C2.11381 7.34574 1.99435 7.72429 2.00021 8.10987V19.8144C1.9981 20.1434 2.08576 20.4677 2.25531 20.7583C2.42485 21.0488 2.67098 21.2965 2.97161 21.4791C3.24864 21.6466 3.56719 21.7487 3.89845 21.7759C4.2297 21.8032 4.56319 21.7548 4.86872 21.6351L8.94863 20.0433L14.3771 22.1241C14.5898 22.2082 14.8195 22.2508 15.0514 22.249C15.2831 22.2493 15.5125 22.2068 15.7256 22.1241L20.7084 20.1786C21.0968 20.0248 21.4266 19.7699 21.6564 19.4459C21.8862 19.122 22.0057 18.7434 21.9998 18.3579V6.68451C22.0019 6.35552 21.9142 6.0312 21.7447 5.74066C21.5751 5.45012 21.329 5.20244 21.0284 5.01987ZM9.80576 6.06027L14.1942 7.76653V20.3866L9.80576 18.6804V6.06027ZM4.19445 20.1994C4.15101 20.2222 4.10174 20.2342 4.05159 20.2342C4.00144 20.2342 3.95217 20.2222 3.90874 20.1994C3.84499 20.1587 3.79368 20.104 3.75968 20.0403C3.72568 19.9765 3.71012 19.906 3.71446 19.8352V8.10987C3.71306 8.02679 3.73971 7.94533 3.7908 7.87648C3.8419 7.80764 3.91498 7.75473 4.00016 7.72492L8.09151 6.11229V18.6804L4.19445 20.1994ZM20.2855 18.3891C20.2898 18.4686 20.2682 18.5475 20.2235 18.616C20.1787 18.6844 20.1129 18.7394 20.0341 18.774L15.9085 20.3866V7.81855L19.8056 6.29956C19.849 6.27674 19.8983 6.26472 19.9484 6.26472C19.9986 6.26472 20.0478 6.27674 20.0913 6.29956C20.155 6.34019 20.2063 6.39496 20.2403 6.45868C20.2743 6.5224 20.2899 6.59297 20.2855 6.66371V18.3891Z" fill="#152B44"/>
</svg>
