<svg width="24" height="25" viewBox="0 0 24 25" fill="none" xmlns="http://www.w3.org/2000/svg">
<path d="M3 12.9111C3 15.2981 3.94821 17.5873 5.63604 19.2751C7.32387 20.9629 9.61305 21.9111 12 21.9111C14.3869 21.9111 16.6761 20.9629 18.364 19.2751C20.0518 17.5873 21 15.2981 21 12.9111C21 10.5242 20.0518 8.235 18.364 6.54717C16.6761 4.85934 14.3869 3.91113 12 3.91113C9.61305 3.91113 7.32387 4.85934 5.63604 6.54717C3.94821 8.235 3 10.5242 3 12.9111Z" stroke="#152B44" stroke-width="1.5" stroke-linejoin="round"/>
<path d="M8.14294 12.9111C8.14294 10.5242 8.54932 8.235 9.27268 6.54717C9.99603 4.85934 10.9771 3.91113 12.0001 3.91113C13.0231 3.91113 14.0041 4.85934 14.7275 6.54717C15.4509 8.235 15.8572 10.5242 15.8572 12.9111C15.8572 15.2981 15.4509 17.5873 14.7275 19.2751C14.0041 20.9629 13.0231 21.9111 12.0001 21.9111C10.9771 21.9111 9.99603 20.9629 9.27268 19.2751C8.54932 17.5873 8.14294 15.2981 8.14294 12.9111Z" stroke="#152B44" stroke-width="1.5" stroke-linejoin="round"/>
<path d="M3.64307 15.9121H20.3574M3.64307 9.91211H20.3574" stroke="#152B44" stroke-width="1.5" stroke-linecap="round"/>
</svg>
